<?xml version="1.0" encoding="utf-8"?>
<!-- Generator: Adobe Illustrator 23.0.4, SVG Export Plug-In . SVG Version: 6.00 Build 0)  -->
<svg version="1.1" id="Layer_1" xmlns="http://www.w3.org/2000/svg" xmlns:xlink="http://www.w3.org/1999/xlink" x="0px" y="0px"
	 viewBox="0 0 112 49" style="enable-background:new 0 0 112 49;" xml:space="preserve">
<style type="text/css">
	.st0{fill:#A25B00;}
</style>
<g>
	<path class="st0" d="M31.9,29.2c0,0.2,0,0.3,0.1,0.4c0.1,0.1,0.2,0.2,0.4,0.2c0.2,0.1,0.4,0.1,0.6,0.1c0.2,0,0.4,0.1,0.6,0.1
		c0.4,0,0.6,0.1,0.7,0.2c0.1,0.1,0.2,0.2,0.2,0.3c0,0.1,0,0.1,0,0.2c0,0.1,0,0.2-0.1,0.3c-0.4,0-0.8,0-1.2-0.1c-0.4,0-0.9,0-1.3-0.1
		c-0.4,0-0.8,0-1.2,0s-0.7,0-0.9,0c-0.4,0-1,0-1.7,0c-0.7,0-1.4,0.1-2.1,0.1c0-0.1-0.1-0.2-0.1-0.3c0-0.1,0-0.2,0-0.2
		c0-0.1,0.1-0.2,0.2-0.3c0.2-0.1,0.4-0.1,0.6-0.1c0.4,0,0.7-0.1,1-0.3c0.2-0.1,0.4-0.3,0.5-0.7l3-12c0.1-0.3,0-0.5-0.2-0.6
		c-0.2-0.1-0.6-0.2-1.1-0.3c-0.5,0-0.7-0.2-0.7-0.5c0-0.1,0-0.3,0.1-0.4c0.8,0,1.5,0.1,2.3,0.1c0.7,0,1.4,0,1.9,0h5.8
		c0.8,0,1.4,0,1.8-0.1c0.4,0,0.8-0.1,1-0.1c0.2,0,0.4,0,0.5,0.1c0.1,0.1,0.1,0.2,0.1,0.4c0,0.5,0.1,1,0.2,1.5c0.1,0.5,0.2,1,0.4,1.5
		c-0.1,0.1-0.2,0.1-0.4,0.2c-0.2,0-0.3,0.1-0.5,0.1c-0.2,0-0.4,0-0.5-0.1c-0.1-0.1-0.2-0.2-0.2-0.3c-0.3-0.8-0.7-1.3-1.2-1.6
		c-0.5-0.3-1.2-0.5-2-0.5h-3.4l-1.5,6.2h3.6c0.5,0,0.8-0.1,1-0.3c0.2-0.2,0.4-0.5,0.5-0.9c0-0.1,0.1-0.2,0.2-0.3
		c0.1-0.1,0.2-0.1,0.4-0.1c0.2,0,0.3,0,0.5,0.1c0.2,0,0.3,0.1,0.4,0.1c-0.1,0.4-0.2,0.7-0.3,1s-0.2,0.6-0.2,0.9
		c-0.1,0.3-0.1,0.7-0.2,1s-0.1,0.8-0.1,1.2c-0.2,0.1-0.5,0.1-0.8,0.1c-0.3,0-0.5,0-0.5-0.1c-0.1-0.1-0.1-0.2-0.1-0.3
		c0.1-0.4,0-0.7-0.1-1c-0.1-0.3-0.4-0.4-0.9-0.4h-3.5L31.9,29.2z"/>
	<path class="st0" d="M48.1,17.2c0.1-0.3,0-0.5-0.1-0.7c-0.2-0.2-0.5-0.3-1.1-0.3c-0.5,0-0.7-0.2-0.7-0.4c0-0.1,0.1-0.3,0.2-0.5
		c0.8,0,1.5,0.1,2.1,0.1c0.7,0,1.2,0,1.7,0c0.4,0,1,0,1.7,0s1.5-0.1,2.2-0.1c0.1,0.2,0.1,0.3,0.1,0.4c0,0.1,0,0.2-0.1,0.3
		c-0.1,0.1-0.3,0.1-0.6,0.1c-0.6,0.1-1,0.2-1.2,0.3c-0.2,0.1-0.4,0.4-0.5,0.7l-3,12c-0.1,0.3,0,0.5,0.2,0.6c0.2,0.1,0.6,0.2,1.1,0.3
		c0.4,0.1,0.6,0.2,0.6,0.4c0,0.1,0,0.3-0.1,0.4c-0.8,0-1.5-0.1-2.3-0.1s-1.3,0-1.8,0c-0.4,0-1,0-1.6,0c-0.7,0-1.4,0.1-2.1,0.1
		c-0.1-0.2-0.1-0.3-0.1-0.4c0-0.1,0-0.2,0.1-0.3c0.1-0.1,0.2-0.1,0.4-0.1c0.5-0.1,0.9-0.2,1.2-0.3c0.3-0.1,0.4-0.4,0.5-0.7
		L48.1,17.2z"/>
	<path class="st0" d="M60,29.1c-0.1,0.3,0,0.5,0.2,0.6c0.2,0.1,0.6,0.3,1.2,0.3c0.3,0,0.5,0.1,0.6,0.2c0.1,0.1,0.2,0.2,0.2,0.3
		c0,0.1,0,0.1,0,0.2c0,0.1,0,0.1-0.1,0.2c-0.8,0-1.5-0.1-2.2-0.1c-0.7,0-1.3,0-1.9,0c-0.5,0-1.1,0-1.9,0s-1.5,0.1-2.2,0.1
		c-0.1-0.1-0.1-0.3-0.1-0.4c0-0.3,0.2-0.4,0.6-0.5c0.6-0.1,1-0.2,1.3-0.4c0.3-0.1,0.5-0.4,0.6-0.6l3-12c0.1-0.3,0-0.5-0.1-0.6
		c-0.2-0.1-0.5-0.2-1-0.3c-0.5-0.1-0.8-0.2-0.8-0.4c0-0.1,0.1-0.3,0.2-0.5c0.8,0.1,1.5,0.1,2.3,0.1c0.7,0,1.4,0,1.9,0h2.5
		c2,0,3.6,0.3,4.8,1c1.2,0.6,1.8,1.5,1.8,2.6c0,0.5-0.1,0.9-0.3,1.4c-0.2,0.4-0.5,0.9-0.9,1.2c-0.4,0.4-0.9,0.7-1.6,1
		c-0.7,0.3-1.5,0.6-2.4,0.8l4.3,5.8c0.2,0.3,0.4,0.5,0.7,0.6c0.3,0.1,0.6,0.2,1,0.3c0.3,0,0.4,0.2,0.4,0.3c0,0.1-0.1,0.3-0.2,0.5
		c-0.2,0-0.5,0-0.8-0.1c-0.3,0-0.6,0-0.9-0.1s-0.6,0-0.9,0c-0.3,0-0.5,0-0.7,0c-0.5,0-1-0.1-1.3-0.3c-0.4-0.2-0.7-0.5-1-1l-4.3-6
		l0.2-0.6c3.2-0.1,4.8-1.4,4.8-3.9c0-0.3-0.1-0.7-0.2-1s-0.3-0.6-0.6-0.8c-0.3-0.2-0.6-0.4-1-0.6c-0.4-0.1-0.9-0.2-1.5-0.2h-0.4
		L60,29.1z"/>
	<path class="st0" d="M83.5,25.7h-5.9l-2.4,3.3c-0.1,0.1-0.1,0.2-0.1,0.4c0,0.3,0.2,0.4,0.6,0.6c0.4,0.1,0.9,0.2,1.4,0.3
		c0.4,0,0.6,0.2,0.6,0.3c0,0.1,0,0.2-0.1,0.4c-0.8,0-1.5-0.1-2.1-0.1c-0.6,0-1.2,0-1.7,0c-0.4,0-0.8,0-1.3,0c-0.5,0-1.1,0.1-1.9,0.1
		c0-0.1-0.1-0.2-0.1-0.2s0-0.1,0-0.2c0-0.1,0.1-0.2,0.2-0.3c0.1-0.1,0.3-0.1,0.6-0.2c1-0.1,1.7-0.4,2.1-0.9l9.8-13.7
		c0.2-0.2,0.4-0.3,0.7-0.3c0.3,0,0.5,0.1,0.7,0.2L88,29.2c0.1,0.3,0.3,0.5,0.6,0.7c0.3,0.1,0.7,0.2,1.1,0.3c0.2,0,0.4,0.1,0.5,0.1
		c0.1,0,0.2,0.2,0.2,0.3c0,0,0,0.1,0,0.2c0,0.1,0,0.1,0,0.2c-0.5,0-1.1-0.1-1.7-0.1c-0.6,0-1.3,0-2,0c-0.3,0-0.6,0-1,0
		c-0.4,0-0.7,0-1.1,0c-0.4,0-0.7,0-1.1,0.1c-0.4,0-0.7,0-1,0.1c-0.1-0.1-0.1-0.3-0.1-0.4c0-0.1,0-0.2,0.1-0.2
		c0.1-0.1,0.2-0.1,0.5-0.2c0.8-0.1,1.3-0.4,1.3-0.8c0-0.1,0-0.2,0-0.2L83.5,25.7z M83.3,24.7l-1.1-5.4l-3.7,5.4H83.3z"/>
</g>
</svg>
