<?xml version="1.0" encoding="utf-8"?>
<!-- Generator: Adobe Illustrator 23.0.4, SVG Export Plug-In . SVG Version: 6.00 Build 0)  -->
<svg version="1.1" id="Layer_1" xmlns="http://www.w3.org/2000/svg" xmlns:xlink="http://www.w3.org/1999/xlink" x="0px" y="0px"
	 viewBox="0 0 265 534" style="enable-background:new 0 0 265 534;" xml:space="preserve">
<style type="text/css">
	.st0{fill:#E6EBF1;}
	.st1{fill:#F6F9FC;}
	.st2{fill:#FFFFFF;}
	.st3{clip-path:url(#SVGID_2_);}
	.st4{fill:#44B7BC;}
	.st5{clip-path:url(#SVGID_4_);}
	.st6{fill:url(#SVGID_5_);}
	.st7{fill:url(#SVGID_6_);}
	.st8{fill:#52468C;}
	.st9{fill:url(#SVGID_7_);}
	.st10{fill:#8888B5;}
	.st11{fill:url(#SVGID_8_);}
	.st12{fill:url(#SVGID_9_);}
	.st13{fill:url(#SVGID_10_);}
	.st14{fill:url(#SVGID_11_);}
	.st15{fill:url(#SVGID_12_);}
	.st16{fill:#0A2540;}
	.st17{fill:#FFFFFF;stroke:#DDE1E4;}
	.st18{clip-path:url(#SVGID_14_);}
	.st19{fill:#FFFFFF;stroke:#000000;stroke-width:0.5;stroke-opacity:0.2;}
	.st20{fill:#171E6C;}
	.st21{clip-path:url(#SVGID_16_);}
	.st22{fill:#ED0006;}
	.st23{fill:#F9A000;}
	.st24{fill:#FF5D00;}
	.st25{clip-path:url(#SVGID_18_);}
	.st26{fill:#016FD0;}
	.st27{clip-path:url(#SVGID_20_);}
	.st28{fill:#F27712;}
	.st29{clip-path:url(#SVGID_22_);}
	.st30{fill:#B4C2D0;}
	.st31{clip-path:url(#SVGID_24_);}
	.st32{fill:none;stroke:#62788D;stroke-width:1.2;}
	.st33{fill:none;stroke:#DDE1E4;stroke-width:0.5;}
	.st34{font-family:'MyriadPro-Regular';}
	.st35{font-size:12px;}
	.st36{fill:#425466;}
	.st37{fill:#62788D;}
</style>
<rect x="25" y="221" class="st0" width="62" height="1"/>
<path class="st1" d="M0,36.5c0-19.9,16.1-36,36-36h192c19.9,0,36,16.1,36,36v461c0,19.9-16.1,36-36,36H36c-19.9,0-36-16.1-36-36
	V36.5z"/>
<path class="st2" d="M8,36.5c0-15.5,12.5-28,28-28h192c15.5,0,28,12.5,28,28v461c0,15.5-12.5,28-28,28H36c-15.5,0-28-12.5-28-28
	V36.5z"/>
<g>
	<defs>
		<rect id="SVGID_1_" x="104" y="32.5" width="46" height="70"/>
	</defs>
	<clipPath id="SVGID_2_">
		<use xlink:href="#SVGID_1_"  style="overflow:visible;"/>
	</clipPath>
	<g class="st3">
		<path class="st4" d="M146,32.5h-38c-2.2,0-4,1.8-4,4v62c0,2.2,1.8,4,4,4h38c2.2,0,4-1.8,4-4v-62C150,34.3,148.2,32.5,146,32.5z"/>
		<path d="M104,41.6l20.3-4.3v5.4L104,47V41.6z"/>
		<path class="st2" d="M106.2,42.8l-0.9,0.2v0.3l0.6-0.1v2l0.9-0.2v-0.3l-0.6,0.1V42.8z M110.1,42.2c0.3-0.1,0.4,0.1,0.4,0.4
			l0.3-0.1c0-0.5-0.2-0.7-0.7-0.6c-0.5,0.1-0.8,0.4-0.8,1v0.8c0,0.5,0.2,0.7,0.8,0.6c0.5-0.1,0.7-0.4,0.7-0.8l-0.3,0.1
			c0,0.3-0.1,0.4-0.4,0.5c-0.3,0.1-0.4-0.1-0.4-0.4v-0.8C109.6,42.5,109.8,42.3,110.1,42.2z M108.7,44.2v-1.3c0-0.4-0.2-0.6-0.6-0.6
			c-0.2,0.1-0.5,0.3-0.6,0.5v-0.3l-0.7,0.1v0.3l0.4-0.1v2l0.3-0.1v-1.6c0.2-0.3,0.3-0.4,0.5-0.4c0.2,0,0.3,0,0.3,0.3v1.6l0.7-0.1
			v-0.3L108.7,44.2L108.7,44.2z M123,39.5v-0.3l-1.2,0.3v0.3l0.3-0.1v2l0.9-0.2v-0.3l-0.5,0.1v-1.6L123,39.5z M113.2,43.3
			c-0.3,0.1-0.4-0.1-0.4-0.4v-0.3l1.2-0.2v-0.4c0-0.5-0.3-0.8-0.8-0.7c-0.5,0.1-0.8,0.5-0.8,1V43c0,0.5,0.3,0.7,0.8,0.6
			c0.6-0.1,0.8-0.6,0.8-0.9l-0.3,0.1C113.7,43.1,113.5,43.2,113.2,43.3z M112.8,42.1c0-0.3,0.1-0.5,0.4-0.6c0.3-0.1,0.4,0.1,0.4,0.4
			v0.1l-0.8,0.2V42.1L112.8,42.1z M118.5,42.2c-0.3,0.1-0.4-0.1-0.4-0.4v-0.3l1.2-0.2v-0.4c0-0.5-0.3-0.8-0.8-0.7
			c-0.5,0.1-0.8,0.5-0.8,1v0.8c0,0.5,0.3,0.7,0.8,0.6c0.6-0.1,0.8-0.6,0.8-0.9l-0.3,0.1C118.9,42,118.7,42.1,118.5,42.2z M118.1,41
			c0-0.3,0.1-0.5,0.4-0.6c0.3-0.1,0.4,0.1,0.4,0.4V41l-0.8,0.2V41L118.1,41z M121.4,41.5v-1.3c0-0.4-0.2-0.6-0.6-0.6
			c-0.2,0.1-0.5,0.3-0.6,0.5v-0.3l-0.7,0.1v0.3l0.4-0.1v2l0.3-0.1v-1.7c0.2-0.3,0.3-0.4,0.5-0.4c0.2,0,0.3,0,0.3,0.3v1.6l0.7-0.1
			v-0.3L121.4,41.5L121.4,41.5z M117.1,42.4v-1.4c0-0.3-0.2-0.6-0.6-0.5c-0.2,0-0.5,0.3-0.5,0.5c0-0.2-0.3-0.3-0.5-0.3
			c-0.2,0-0.4,0.3-0.5,0.5v-0.3l-0.7,0.1v0.3l0.4-0.1v2l0.3-0.1v-1.6c0.1-0.2,0.2-0.4,0.4-0.4c0.1,0,0.3,0,0.3,0.3V43l0.3-0.1v-1.6
			c0.1-0.2,0.2-0.4,0.4-0.4c0.1,0,0.3,0,0.3,0.3v1.6l0.7-0.1v-0.3L117.1,42.4L117.1,42.4z M111.2,41.7V44l0.3-0.1v-2l0.6-0.1v-0.3
			L111.2,41.7z"/>
		<path d="M104,72.1l10.8-9.2v12.8H104V72.1z"/>
		<path d="M110.3,97.2c1.2,0,2-0.6,2-1.5c0-0.8-0.5-1.3-1.3-1.5l-0.9-0.2c-0.5-0.1-0.7-0.3-0.7-0.7c0-0.4,0.3-0.6,0.9-0.6
			c0.5,0,0.9,0.2,0.9,0.7h1c-0.1-1.1-0.9-1.5-1.9-1.5c-1.1,0-1.9,0.6-1.9,1.4c0,0.8,0.4,1.3,1.2,1.5l1,0.3c0.5,0.1,0.7,0.3,0.7,0.7
			c0,0.4-0.4,0.7-1,0.7c-0.6,0-1-0.2-1.1-0.8h-1C108.3,96.8,109.2,97.2,110.3,97.2z M114.2,97.2c0.9,0,1.6-0.5,1.7-1.3h-0.9
			c0,0.4-0.3,0.6-0.7,0.6c-0.4,0-0.8-0.3-0.8-0.7v-0.3h2.5V95c0-1.1-0.7-1.8-1.7-1.8c-1,0-1.7,0.8-1.7,2
			C112.5,96.4,113.1,97.2,114.2,97.2z M114.9,94.8h-1.5v-0.1c0-0.4,0.3-0.7,0.8-0.7c0.4,0,0.8,0.3,0.8,0.7V94.8z M104.9,78.3
			c5.9,0,10.7,2.3,10.7,5.2c0,2.9-4.8,5.2-10.7,5.2c-0.3,0-0.6,0-0.9,0v-0.4c0.3,0,0.6,0,0.9,0c5.7,0,10.3-2.2,10.3-4.8
			c0-2.6-4.6-4.8-10.3-4.8c-0.3,0-0.6,0-0.9,0v-0.4C104.3,78.3,104.6,78.3,104.9,78.3z M141.7,32.5c-0.1,0.4-0.1,0.8-0.1,1.2
			c0,4,3.2,7.3,7.1,7.3c0.4,0,0.9,0,1.3-0.1v0.4c-0.4,0.1-0.9,0.1-1.3,0.1c-4.1,0-7.5-3.4-7.5-7.7c0-0.4,0-0.8,0.1-1.2H141.7z"/>
	</g>
</g>
<g>
	<defs>
		<rect id="SVGID_3_" x="114" y="42.5" width="46" height="70"/>
	</defs>
	<clipPath id="SVGID_4_">
		<use xlink:href="#SVGID_3_"  style="overflow:visible;"/>
	</clipPath>
	<g class="st5">
		
			<linearGradient id="SVGID_5_" gradientUnits="userSpaceOnUse" x1="137.024" y1="469.5986" x2="137.024" y2="428.92" gradientTransform="matrix(1 0 0 -1 0 536)">
			<stop  offset="0" style="stop-color:#AC9CC0"/>
			<stop  offset="1" style="stop-color:#F2D6DF"/>
		</linearGradient>
		<path class="st6" d="M114,66.4h46v42.1c0,1.1-0.4,2.1-1.2,2.8c-0.8,0.8-1.8,1.2-2.8,1.2h-38c-1.1,0-2.1-0.4-2.8-1.2
			s-1.2-1.8-1.2-2.8V66.4z"/>
		
			<linearGradient id="SVGID_6_" gradientUnits="userSpaceOnUse" x1="137.025" y1="472.3986" x2="137.025" y2="469.5986" gradientTransform="matrix(1 0 0 -1 0 536)">
			<stop  offset="0" style="stop-color:#6F74A9"/>
			<stop  offset="0.8" style="stop-color:#515997"/>
			<stop  offset="1" style="stop-color:#323C83"/>
		</linearGradient>
		<path class="st7" d="M160,63.6h-46v2.8h46V63.6z"/>
		<path class="st8" d="M118,42.5h38c1.1,0,2.1,0.4,2.8,1.2c0.8,0.8,1.2,1.8,1.2,2.8v17.1h-46V46.5c0-1.1,0.4-2.1,1.2-2.8
			C115.9,42.9,117,42.5,118,42.5L118,42.5z"/>
		
			<linearGradient id="SVGID_7_" gradientUnits="userSpaceOnUse" x1="114.024" y1="482.2966" x2="160.024" y2="482.2966" gradientTransform="matrix(1 0 0 -1 0 536)">
			<stop  offset="0" style="stop-color:#B1AFCC"/>
			<stop  offset="1" style="stop-color:#7B80B1"/>
		</linearGradient>
		<path class="st9" d="M159.9,58.1l0.1,0.1v5.4h-46V46.5c0-1,0.4-2,1-2.7C127.4,45.4,142.9,55.2,159.9,58.1z"/>
		<path class="st10" d="M160,48.5h-22.9c3.6,0,15.2-1.9,21.5-5c0.4,0.4,0.8,0.8,1,1.4c0.2,0.5,0.4,1.1,0.4,1.7V48.5z"/>
		
			<linearGradient id="SVGID_8_" gradientUnits="userSpaceOnUse" x1="126.824" y1="446.5488" x2="134.324" y2="446.5488" gradientTransform="matrix(1 0 0 -1 0 536)">
			<stop  offset="0" style="stop-color:#EB938A"/>
			<stop  offset="0.9" style="stop-color:#E6887F"/>
			<stop  offset="1" style="stop-color:#B74840"/>
		</linearGradient>
		<path class="st11" d="M134.3,66.4h-7.5v46.1h7.5V66.4z"/>
		
			<linearGradient id="SVGID_9_" gradientUnits="userSpaceOnUse" x1="132.825" y1="478.9986" x2="159.024" y2="478.9986" gradientTransform="matrix(1 0 0 -1 0 536)">
			<stop  offset="0" style="stop-color:#FFFFFF;stop-opacity:0"/>
			<stop  offset="1" style="stop-color:#FFFFFF;stop-opacity:0.5"/>
		</linearGradient>
		<path class="st12" d="M145.9,50.4c7.2,0,13.1,5.9,13.1,13.1v0.1h-26.2v-0.1c0-7.2,5.7-13,12.9-13.1L145.9,50.4z"/>
		
			<linearGradient id="SVGID_10_" gradientUnits="userSpaceOnUse" x1="141.599" y1="441.9386" x2="141.599" y2="423.499" gradientTransform="matrix(1 0 0 -1 0 536)">
			<stop  offset="0" style="stop-color:#4FBED4"/>
			<stop  offset="1" style="stop-color:#439CCA"/>
		</linearGradient>
		<path class="st13" d="M159.3,66.4c0,3.6-1.7,8-4.5,11.3c-3.2,3.9-7.6,6.2-12.6,6.2c-8.6,0-15.1,6.7-15.2,15.3l0,13.3h-3v-13
			c0-10.4,7.8-18.6,18.2-18.6c4.1,0,7.6-1.9,10.3-5.1c2.3-2.8,3.7-6.4,3.8-9.3v-0.1H159.3L159.3,66.4z"/>
		<path d="M140.4,97.2c1.1,0,1.9-0.5,2-1.7h-1c-0.1,0.6-0.4,0.8-1,0.8c-0.6,0-1.1-0.4-1.1-1.1v-1.6c0-0.6,0.4-1,1.1-1
			c0.6,0,0.9,0.3,1,0.8h1c-0.1-1-0.8-1.6-1.9-1.6c-1.5,0-2.2,1.1-2.2,2.7C138.2,96.1,138.9,97.2,140.4,97.2z M143.7,97.1V92h-0.9
			v5.1H143.7z M145.9,97.2c1.1,0,1.8-0.8,1.8-2s-0.6-2-1.8-2c-1.1,0-1.8,0.8-1.8,2S144.7,97.2,145.9,97.2z M145.9,96.5
			c-0.5,0-0.8-0.3-0.8-0.7v-1.1c0-0.5,0.4-0.7,0.8-0.7s0.8,0.3,0.8,0.7v1.1C146.7,96.2,146.3,96.5,145.9,96.5z M149.2,97.2
			c0.5,0,0.9-0.2,1.1-0.6v0.6h0.9v-3.8h-0.9v2.2c0,0.6-0.3,0.9-0.8,0.9c-0.4,0-0.6-0.3-0.6-0.7v-2.4H148v2.5
			C148,96.7,148.4,97.2,149.2,97.2z M153.2,97.2c0.2,0,0.4,0,0.6-0.2c0.2-0.1,0.4-0.3,0.5-0.5v0.5h0.9V92h-0.9v1.8
			c-0.2-0.4-0.6-0.6-1.1-0.6c-1,0-1.5,0.9-1.5,2S152.2,97.2,153.2,97.2z M153.5,96.5c-0.5,0-0.8-0.3-0.8-0.7v-1.1
			c0-0.4,0.3-0.7,0.8-0.7c0.6,0,0.9,0.4,0.9,1v0.6C154.3,96.1,154.1,96.5,153.5,96.5z"/>
		<path class="st2" d="M152.4,63.6H114v-12C124.5,52.5,137.8,61.1,152.4,63.6z"/>
		<path d="M114,51.6l20.3-4.3v5.4L114,57V51.6z"/>
		<path class="st2" d="M116.2,52.8l-0.9,0.2v0.3l0.6-0.1v2l0.9-0.2v-0.3l-0.6,0.1V52.8z M120.1,52.2c0.3-0.1,0.4,0.1,0.4,0.4
			l0.3-0.1c0-0.5-0.2-0.7-0.7-0.6c-0.5,0.1-0.8,0.4-0.8,1v0.8c0,0.5,0.2,0.7,0.8,0.6c0.5-0.1,0.7-0.4,0.7-0.8l-0.3,0.1
			c0,0.3-0.1,0.4-0.4,0.5c-0.3,0.1-0.4-0.1-0.4-0.4v-0.8C119.6,52.5,119.8,52.3,120.1,52.2z M118.7,54.2v-1.3c0-0.4-0.2-0.6-0.6-0.6
			c-0.2,0.1-0.5,0.3-0.6,0.5v-0.3l-0.7,0.1v0.3l0.4-0.1v2l0.3-0.1v-1.6c0.2-0.3,0.3-0.4,0.5-0.4c0.2,0,0.3,0,0.3,0.3v1.6l0.7-0.1
			v-0.3L118.7,54.2z M133,49.5v-0.3l-1.2,0.3v0.3l0.3-0.1v2l0.9-0.2v-0.3l-0.5,0.1v-1.6L133,49.5z M123.2,53.3
			c-0.3,0.1-0.4-0.1-0.4-0.4v-0.3l1.2-0.2v-0.4c0-0.5-0.3-0.8-0.8-0.7c-0.5,0.1-0.8,0.5-0.8,1V53c0,0.5,0.3,0.7,0.8,0.6
			c0.6-0.1,0.8-0.6,0.8-0.9l-0.3,0.1C123.7,53.1,123.5,53.2,123.2,53.3z M122.8,52.1c0-0.3,0.1-0.5,0.4-0.6c0.3-0.1,0.4,0.1,0.4,0.4
			v0.1l-0.8,0.2V52.1L122.8,52.1z M128.5,52.2c-0.3,0.1-0.4-0.1-0.4-0.4v-0.3l1.2-0.2v-0.4c0-0.5-0.3-0.8-0.8-0.7
			c-0.5,0.1-0.8,0.5-0.8,1v0.8c0,0.5,0.3,0.7,0.8,0.6c0.6-0.1,0.8-0.6,0.8-0.9l-0.3,0.1C128.9,52,128.7,52.1,128.5,52.2z M128.1,51
			c0-0.3,0.1-0.5,0.4-0.6c0.3-0.1,0.4,0.1,0.4,0.4V51l-0.8,0.2V51L128.1,51z M131.4,51.5v-1.3c0-0.4-0.2-0.6-0.6-0.6
			c-0.2,0.1-0.5,0.3-0.6,0.5v-0.3l-0.7,0.1v0.3l0.4-0.1v2l0.3-0.1v-1.7c0.2-0.3,0.3-0.4,0.5-0.4c0.2,0,0.3,0,0.3,0.3v1.6l0.7-0.1
			v-0.3L131.4,51.5L131.4,51.5z M127.1,52.4v-1.4c0-0.3-0.2-0.6-0.6-0.5c-0.2,0-0.5,0.3-0.5,0.5c0-0.2-0.3-0.3-0.5-0.3
			c-0.2,0-0.4,0.3-0.5,0.5v-0.3l-0.7,0.1v0.3l0.4-0.1v2l0.3-0.1v-1.6c0.1-0.2,0.2-0.4,0.4-0.4c0.1,0,0.3,0,0.3,0.3V53l0.3-0.1v-1.6
			c0.1-0.2,0.2-0.4,0.4-0.4c0.1,0,0.3,0,0.3,0.3v1.6l0.7-0.1v-0.3L127.1,52.4L127.1,52.4z M121.2,51.7V54l0.3-0.1v-2l0.6-0.1v-0.3
			L121.2,51.7z"/>
		
			<linearGradient id="SVGID_11_" gradientUnits="userSpaceOnUse" x1="132.099" y1="469.5986" x2="132.099" y2="440.6136" gradientTransform="matrix(1 0 0 -1 0 536)">
			<stop  offset="0" style="stop-color:#52468C;stop-opacity:0.8"/>
			<stop  offset="1" style="stop-color:#52468C;stop-opacity:0.2"/>
		</linearGradient>
		<path class="st14" d="M150.2,66.4c0,4.6-1.8,9.9-4.7,14.3c-3.4,4.9-8,8.3-13.3,9.1l-0.4,0.1c-0.4,0.1-1.6,0.2-3.7,0.5
			c-1.3,0.2-2.6,0.4-3.9,0.6c-3.5,0.6-6.1,1.5-8.2,2.9c-0.7,0.4-1.3,0.9-1.9,1.5v-9.7c2.5-1.2,5.2-2,8.5-2.6l0.4-0.1l0.3-0.1
			c1-0.2,1.8-0.3,3.5-0.5l2.4-0.3c0.6-0.1,1.3-0.2,1.9-0.3c2.9-0.4,5.6-2.5,7.8-5.7c2.1-3,3.3-6.7,3.3-9.6v-0.1H150.2z"/>
		
			<linearGradient id="SVGID_12_" gradientUnits="userSpaceOnUse" x1="137.0245" y1="440.6786" x2="137.0245" y2="423.684" gradientTransform="matrix(1 0 0 -1 0 536)">
			<stop  offset="0" style="stop-color:#F2B532"/>
			<stop  offset="1" style="stop-color:#EB9234"/>
		</linearGradient>
		<path class="st15" d="M116.2,98.6c2.3,2.3,5.8,3.7,10.5,3.7H148c4.6,0,9.1,2.3,12,5.7v0.4c0,0.9-0.3,1.7-0.8,2.4
			c-0.5,0.7-1.2,1.2-2,1.5c-1.9-2.9-5.4-5.1-9-5.2l-21.3,0c-5.3,0-9.6-1.4-12.8-4.1v-7.8C114.5,96.6,115.3,97.7,116.2,98.6
			L116.2,98.6z"/>
	</g>
</g>
<g>
	<path class="st16" d="M24,177.5c0-2.2,1.8-4,4-4h208c2.2,0,4,1.8,4,4v16c0,2.2-1.8,4-4,4H28c-2.2,0-4-1.8-4-4V177.5z"/>
</g>
<path class="st2" d="M142,182.7l1.6,5.2h0l1.6-5.2h1.4l-2.4,6.8c-0.6,1.6-1.2,2.1-2.5,2.1c-0.1,0-0.4,0-0.5,0v-1.1l0.4,0
	c0.6,0,0.9-0.3,1.2-0.9l0.1-0.4l-2.3-6.4H142z M123.4,181.9c0.3,0,1.2,0.1,1.8,1c-0.1,0-1.1,0.6-1.1,1.8c0,1.5,1.3,1.9,1.3,2
	c0,0-0.2,0.7-0.7,1.4c-0.4,0.6-0.8,1.2-1.5,1.2c-0.6,0-0.8-0.4-1.6-0.4c-0.7,0-1,0.4-1.6,0.4c-0.6,0-1.1-0.6-1.5-1.2
	c-0.8-1.2-1.4-3.4-0.6-4.8c0.2-0.4,0.5-0.7,0.8-0.9c0.3-0.2,0.7-0.3,1.1-0.3c0.6,0,1.2,0.4,1.6,0.4
	C122,182.4,122.6,181.9,123.4,181.9L123.4,181.9z M137.4,182.6c1.6,0,2.6,0.8,2.6,2.1v4.4h-1.3v-1h0c-0.2,0.4-0.5,0.6-0.9,0.8
	c-0.4,0.2-0.8,0.3-1.2,0.3c-1.3,0-2.2-0.8-2.2-1.9c0-1.1,0.9-1.8,2.5-1.9l1.7-0.1v-0.5c0-0.7-0.5-1.1-1.3-1.1
	c-0.7,0-1.2,0.4-1.3,0.9h-1.2C134.9,183.5,136,182.7,137.4,182.6L137.4,182.6z M131.3,180.3c1.7,0,2.9,1.2,2.9,2.9
	c0,0.4,0,0.8-0.2,1.1c-0.1,0.4-0.4,0.7-0.6,1c-0.3,0.3-0.6,0.5-1,0.6c-0.4,0.1-0.8,0.2-1.1,0.2h-1.9v3H128v-8.9H131.3L131.3,180.3z
	 M138.7,186.2l-1.5,0.1c-0.8,0.1-1.3,0.4-1.3,0.9s0.5,0.9,1.2,0.9c0.9,0,1.6-0.6,1.6-1.4L138.7,186.2L138.7,186.2z M130.9,181.4
	h-1.6v3.5h1.6c1.2,0,1.9-0.6,1.9-1.8C132.8,182.1,132.1,181.5,130.9,181.4L130.9,181.4z M123.4,179.6c0.1,0.6-0.2,1.1-0.5,1.5
	c-0.3,0.4-0.9,0.7-1.4,0.7c-0.1-0.6,0.2-1.1,0.5-1.5C122.4,179.9,122.9,179.7,123.4,179.6z"/>
<rect x="177" y="220.5" class="st0" width="62" height="1"/>
<path class="st17" d="M24.5,322.9c0-1.9,1.6-3.5,3.5-3.5h208c1.9,0,3.5,1.6,3.5,3.5v20.6h-215V322.9z"/>
<path class="st17" d="M24.5,407.9c0-1.9,1.6-3.5,3.5-3.5h208c1.9,0,3.5,1.6,3.5,3.5v20.6h-215V407.9z"/>
<path class="st17" d="M24.5,343.9h215v20.6c0,1.9-1.6,3.5-3.5,3.5H28c-1.9,0-3.5-1.6-3.5-3.5V343.9z"/>
<path class="st17" d="M24.5,428.4h215v20.6c0,1.9-1.6,3.5-3.5,3.5H28c-1.9,0-3.5-1.6-3.5-3.5V428.4z"/>
<g>
	<defs>
		<rect id="SVGID_13_" x="148" y="325.5" width="17" height="12"/>
	</defs>
	<clipPath id="SVGID_14_">
		<use xlink:href="#SVGID_13_"  style="overflow:visible;"/>
	</clipPath>
	<g class="st18">
		<path class="st19" d="M149.6,325.7h13.8c0.8,0,1.4,0.6,1.4,1.4v8.7c0,0.8-0.6,1.4-1.4,1.4h-13.8c-0.8,0-1.4-0.6-1.4-1.4v-8.7
			C148.2,326.3,148.8,325.7,149.6,325.7L149.6,325.7z"/>
		<path class="st20" d="M150,329.9c-0.4-0.2-0.8-0.4-1.3-0.5l0-0.1h1.9c0.3,0,0.5,0.1,0.6,0.4l0.4,2l0.1,0.6l1.2-3h1.3l-1.9,4.3
			h-1.3L150,329.9L150,329.9z M155.2,333.7H154l0.8-4.4h1.2L155.2,333.7z M159.5,329.4l-0.2,1l-0.1-0.1c-0.2-0.1-0.5-0.2-0.9-0.2
			c-0.5,0-0.7,0.2-0.7,0.4c0,0.2,0.3,0.3,0.7,0.5c0.7,0.3,1,0.7,1,1.2c0,0.9-0.8,1.5-2.1,1.5c-0.5,0-1.1-0.1-1.3-0.2l0.2-1l0.2,0.1
			c0.4,0.2,0.6,0.2,1.1,0.2c0.3,0,0.7-0.1,0.7-0.4c0-0.2-0.2-0.3-0.6-0.5c-0.4-0.2-1.1-0.6-1-1.2c0-0.8,0.8-1.4,2-1.4
			C158.9,329.2,159.3,329.3,159.5,329.4z M161.1,332.2h1l-0.3-1.3l-0.1-0.4l-0.1,0.4L161.1,332.2L161.1,332.2z M162.6,329.3l1,4.4
			h-1.1l-0.1-0.7h-1.5l-0.3,0.7h-1.3l1.8-4c0.1-0.3,0.3-0.4,0.6-0.4L162.6,329.3L162.6,329.3L162.6,329.3z"/>
	</g>
</g>
<g>
	<defs>
		<rect id="SVGID_15_" x="171" y="325.5" width="17" height="12"/>
	</defs>
	<clipPath id="SVGID_16_">
		<use xlink:href="#SVGID_15_"  style="overflow:visible;"/>
	</clipPath>
	<g class="st21">
		<path class="st16" d="M186,325.5h-13c-1.1,0-2,0.9-2,2v8c0,1.1,0.9,2,2,2h13c1.1,0,2-0.9,2-2v-8C188,326.4,187.1,325.5,186,325.5z
			"/>
		<path class="st22" d="M177,335.1c2,0,3.6-1.6,3.6-3.6c0-2-1.6-3.6-3.6-3.6c-2,0-3.6,1.6-3.6,3.6C173.4,333.5,175,335.1,177,335.1z
			"/>
		<path class="st23" d="M181.8,335.1c2,0,3.6-1.6,3.6-3.6c0-2-1.6-3.6-3.6-3.6c-2,0-3.6,1.6-3.6,3.6
			C178.2,333.5,179.8,335.1,181.8,335.1z"/>
		<path class="st24" d="M179.4,328.8c0.4,0.3,0.7,0.8,0.9,1.2c0.2,0.5,0.3,1,0.3,1.5c0,0.5-0.1,1-0.3,1.5c-0.2,0.5-0.5,0.9-0.9,1.2
			c-0.4-0.3-0.7-0.7-0.9-1.2c-0.2-0.5-0.3-0.9-0.3-1.4c0-0.5,0.1-1,0.3-1.4C178.7,329.6,179,329.2,179.4,328.8L179.4,328.8z"/>
	</g>
</g>
<g>
	<defs>
		<rect id="SVGID_17_" x="194" y="325.5" width="17" height="12"/>
	</defs>
	<clipPath id="SVGID_18_">
		<use xlink:href="#SVGID_17_"  style="overflow:visible;"/>
	</clipPath>
	<g class="st25">
		<path class="st26" d="M209,325.5h-13c-1.1,0-2,0.9-2,2v8c0,1.1,0.9,2,2,2h13c1.1,0,2-0.9,2-2v-8C211,326.4,210.1,325.5,209,325.5z
			"/>
		<path class="st2" d="M203.4,335.6v-4.3l7.7,0v1.2l-0.9,0.9l0.9,1v1.2h-1.4l-0.8-0.8l-0.7,0.8L203.4,335.6z"/>
		<path class="st26" d="M203.9,335.1v-3.4h2.8v0.8h-1.9v0.5h1.9v0.8h-1.9v0.5h1.9v0.8H203.9z"/>
		<path class="st26" d="M206.7,335.1l1.6-1.7l-1.6-1.7h1.2l1,1.1l1-1.1h1.2v0l-1.5,1.6l1.5,1.6v0h-1.2l-1-1.1l-1,1.1H206.7z"/>
		<path class="st2" d="M203.7,327.5h1.8l0.6,1.5v-1.5h2.3l0.4,1.1l0.4-1.1h1.7v4.3h-9.2L203.7,327.5z"/>
		<path class="st26" d="M204.1,328l-1.5,3.4h1l0.3-0.7h1.5l0.3,0.7h1.1l-1.5-3.4H204.1L204.1,328z M204.2,329.9l0.5-1.1l0.4,1.1
			H204.2z"/>
		<path class="st26" d="M206.7,331.3V328l1.4,0l0.7,2.1l0.7-2.1h1.4v3.4l-0.9,0V329l-0.8,2.3h-0.8l-0.9-2.3v2.3H206.7z"/>
	</g>
</g>
<g>
	<defs>
		<rect id="SVGID_19_" x="217" y="325.5" width="17" height="12"/>
	</defs>
	<clipPath id="SVGID_20_">
		<use xlink:href="#SVGID_19_"  style="overflow:visible;"/>
	</clipPath>
	<g class="st27">
		<path class="st19" d="M232.6,337.3c0.7,0,1.2-0.6,1.2-1.2v-9.1c0-0.3-0.1-0.6-0.4-0.9c-0.1-0.1-0.2-0.2-0.4-0.3
			c-0.1-0.1-0.3-0.1-0.5-0.1h-14.2c-0.3,0-0.6,0.1-0.9,0.4c-0.2,0.2-0.4,0.6-0.4,0.9v9.1c0,0.3,0.1,0.6,0.4,0.9
			c0.2,0.2,0.5,0.4,0.9,0.4H232.6z"/>
		<path class="st28" d="M226,337.6h6.7c0.8,0,1.4-0.6,1.4-1.4v-1.7C231.5,335.9,228.8,337,226,337.6z"/>
		<path d="M233.4,332.3h-0.6l-0.7-0.9h-0.1v0.9h-0.5v-2.2h0.7c0.6,0,0.9,0.2,0.9,0.6c0,0.4-0.2,0.6-0.6,0.6L233.4,332.3z
			 M232.7,330.7c0-0.2-0.2-0.3-0.5-0.3h-0.2v0.7h0.1C232.5,331.1,232.7,331,232.7,330.7z M229.9,330.1h1.4v0.4h-0.9v0.5h0.9v0.4
			h-0.9v0.6h0.9v0.4h-1.4L229.9,330.1L229.9,330.1z M228.3,332.3l-1.1-2.3h0.5l0.7,1.5l0.7-1.5h0.5l-1.1,2.3L228.3,332.3
			L228.3,332.3z M223.8,332.3c-0.8,0-1.3-0.5-1.3-1.2c0-0.6,0.6-1.2,1.4-1.2c0.2,0,0.4,0,0.6,0.1v0.5c-0.2-0.2-0.4-0.2-0.6-0.2
			c-0.5,0-0.8,0.3-0.8,0.8c0,0.4,0.4,0.8,0.8,0.8c0.2,0,0.4-0.1,0.6-0.2v0.5C224.2,332.3,224,332.3,223.8,332.3z M222.3,331.6
			c0,0.4-0.4,0.7-0.9,0.7c-0.4,0-0.6-0.1-0.9-0.4l0.3-0.3c0.1,0.2,0.3,0.3,0.5,0.3c0.2,0,0.4-0.2,0.4-0.3c0-0.1-0.1-0.2-0.2-0.2
			c-0.1,0-0.2-0.1-0.3-0.1c-0.5-0.1-0.6-0.3-0.6-0.6c0-0.4,0.3-0.6,0.8-0.6c0.3,0,0.5,0.1,0.7,0.2l-0.2,0.3
			c-0.1-0.1-0.1-0.1-0.2-0.1s-0.1,0-0.2,0c-0.2,0-0.4,0.1-0.4,0.2c0,0.1,0.1,0.2,0.4,0.3C222.2,331.1,222.3,331.2,222.3,331.6z
			 M219.9,330.1h0.5v2.2h-0.5V330.1z M218.3,332.3h-0.7v-2.2h0.7c0.8,0,1.4,0.5,1.4,1.1c0,0.3-0.2,0.7-0.5,0.9
			C219,332.2,218.7,332.3,218.3,332.3L218.3,332.3z M218.9,330.6c-0.2-0.1-0.3-0.2-0.7-0.2h-0.1v1.5h0.1c0.3,0,0.5-0.1,0.7-0.2
			c0.1-0.1,0.2-0.1,0.2-0.2c0-0.1,0.1-0.2,0.1-0.3c0-0.1,0-0.2-0.1-0.3C219.1,330.8,219,330.7,218.9,330.6z"/>
		<path class="st28" d="M225.8,330c-0.6,0-1.2,0.5-1.2,1.1c0,0.7,0.5,1.2,1.2,1.2c0.7,0,1.2-0.5,1.2-1.2
			C227,330.5,226.5,330,225.8,330z"/>
	</g>
</g>
<g>
	<defs>
		<rect id="SVGID_21_" x="217" y="348.5" width="19" height="14"/>
	</defs>
	<clipPath id="SVGID_22_">
		<use xlink:href="#SVGID_21_"  style="overflow:visible;"/>
	</clipPath>
	<g class="st29">
		<path class="st0" d="M232,350.5h-13c-1.1,0-2,0.9-2,2v8c0,1.1,0.9,2,2,2h13c1.1,0,2-0.9,2-2v-8C234,351.4,233.1,350.5,232,350.5z"
			/>
		<path class="st2" d="M231,352.5h-11c-0.6,0-1,0.4-1,1c0,0.6,0.4,1,1,1h11c0.6,0,1-0.4,1-1C232,352.9,231.6,352.5,231,352.5z"/>
		<path class="st30" d="M231.5,357.5c2.5,0,4.5-2,4.5-4.5c0-2.5-2-4.5-4.5-4.5s-4.5,2-4.5,4.5C227,355.5,229,357.5,231.5,357.5z"/>
		<path class="st2" d="M229.5,354.5v-2.9H229c0,0.3-0.2,0.5-0.6,0.5l-0.2,0v0.5h0.7v1.9L229.5,354.5L229.5,354.5z M231.1,354.5
			c0.6,0,1.1-0.4,1.1-0.9c0-0.4-0.2-0.6-0.5-0.7c0.1,0,0.2-0.1,0.3-0.2c0.1-0.1,0.1-0.2,0.1-0.4c0-0.5-0.4-0.8-1-0.8
			c-0.6,0-1,0.4-1.1,0.9l0.6,0.1c0-0.2,0.2-0.4,0.4-0.4c0.2,0,0.4,0.1,0.4,0.3c0,0.2-0.2,0.3-0.4,0.3h-0.3v0.5h0.3
			c0.3,0,0.5,0.1,0.5,0.3c0,0.2-0.2,0.4-0.4,0.4c-0.2,0-0.4-0.2-0.5-0.5l-0.6,0.1C230.1,354.2,230.5,354.5,231.1,354.5z
			 M233.7,354.5c0.6,0,1.1-0.4,1.1-1c0-0.6-0.4-1-0.9-1c-0.2,0-0.4,0.1-0.5,0.2l0.1-0.5h1.2v-0.6h-1.7l-0.1,1.6l0.6,0.1
			c0.1-0.1,0.2-0.2,0.4-0.2c0.3,0,0.4,0.2,0.4,0.5c0,0.3-0.2,0.5-0.4,0.5s-0.4-0.2-0.5-0.4l-0.6,0.1
			C232.6,354.2,233.1,354.5,233.7,354.5z"/>
	</g>
</g>
<g>
	<defs>
		<rect id="SVGID_23_" x="222" y="413.5" width="9" height="6"/>
	</defs>
	<clipPath id="SVGID_24_">
		<use xlink:href="#SVGID_23_"  style="overflow:visible;"/>
	</clipPath>
	<g class="st31">
		<path class="st32" d="M223,414.5l3.5,3.5l3.5-3.5"/>
	</g>
</g>
<g>
	<path class="st16" d="M24,481.5c0-2.2,1.8-4,4-4h208c2.2,0,4,1.8,4,4v16c0,2.2-1.8,4-4,4H28c-2.2,0-4-1.8-4-4V481.5z"/>
</g>
<path class="st16" d="M81.4,130.6v7.9h1v-7.9H81.4z M84.3,132.8v5.7h0.9v-3.2c0-0.3,0-0.5,0.1-0.7c0.1-0.2,0.2-0.4,0.3-0.6
	c0.1-0.2,0.3-0.3,0.5-0.4c0.2-0.1,0.5-0.1,0.7-0.1c0.4,0,0.6,0.1,0.8,0.3c0.2,0.2,0.3,0.5,0.3,0.8v3.9H89v-3.7c0-0.3,0-0.6-0.1-0.8
	c-0.1-0.3-0.2-0.5-0.3-0.7c-0.2-0.2-0.4-0.3-0.6-0.4c-0.2-0.1-0.6-0.2-0.9-0.2c-0.8,0-1.5,0.3-1.8,1h0v-0.9H84.3z M94.4,134.6h1
	c0-0.3-0.1-0.6-0.3-0.9c-0.1-0.2-0.3-0.5-0.5-0.6c-0.2-0.2-0.5-0.3-0.7-0.4c-0.3-0.1-0.6-0.1-0.9-0.1c-0.4,0-0.8,0.1-1.2,0.2
	c-0.3,0.2-0.6,0.4-0.8,0.6c-0.2,0.3-0.4,0.6-0.5,1c-0.1,0.4-0.2,0.8-0.2,1.2c0,0.4,0.1,0.8,0.2,1.2c0.1,0.4,0.3,0.7,0.5,0.9
	c0.2,0.3,0.5,0.5,0.8,0.6c0.3,0.1,0.7,0.2,1.2,0.2c0.7,0,1.3-0.2,1.7-0.6c0.4-0.4,0.7-0.9,0.8-1.6h-1c-0.1,0.4-0.2,0.8-0.5,1
	c-0.3,0.2-0.6,0.4-1.1,0.4c-0.3,0-0.5-0.1-0.8-0.2c-0.2-0.1-0.4-0.3-0.5-0.5c-0.1-0.2-0.2-0.4-0.3-0.7c-0.1-0.2-0.1-0.5-0.1-0.8
	c0-0.3,0-0.6,0.1-0.8c0.1-0.3,0.2-0.5,0.3-0.7c0.1-0.2,0.3-0.4,0.6-0.5c0.2-0.1,0.5-0.2,0.8-0.2c0.4,0,0.7,0.1,0.9,0.3
	C94.2,134,94.4,134.3,94.4,134.6z M96.6,132.8v5.7h0.9V136c0-0.4,0-0.7,0.1-1c0.1-0.3,0.2-0.5,0.4-0.7c0.2-0.2,0.4-0.3,0.6-0.5
	c0.3-0.1,0.6-0.2,1-0.2v-1c-0.5,0-0.9,0.1-1.3,0.3s-0.6,0.6-0.8,1h0v-1.2H96.6z M104.3,135.1H101c0-0.2,0.1-0.4,0.1-0.6
	c0.1-0.2,0.2-0.4,0.3-0.5c0.1-0.1,0.3-0.3,0.5-0.3c0.2-0.1,0.4-0.1,0.7-0.1c0.2,0,0.4,0,0.6,0.1c0.2,0.1,0.4,0.2,0.5,0.3
	c0.1,0.1,0.3,0.3,0.3,0.5C104.2,134.7,104.3,134.9,104.3,135.1z M105.2,136.7h-0.9c-0.1,0.4-0.2,0.7-0.5,0.8c-0.2,0.2-0.6,0.3-1,0.3
	c-0.3,0-0.6-0.1-0.8-0.2c-0.2-0.1-0.4-0.2-0.6-0.4c-0.1-0.2-0.3-0.4-0.3-0.6c-0.1-0.2-0.1-0.5-0.1-0.7h4.3c0-0.3,0-0.7-0.1-1.1
	c-0.1-0.4-0.2-0.7-0.4-1.1c-0.2-0.3-0.5-0.6-0.8-0.8c-0.3-0.2-0.7-0.3-1.3-0.3c-0.4,0-0.7,0.1-1.1,0.2c-0.3,0.1-0.6,0.4-0.8,0.6
	c-0.2,0.3-0.4,0.6-0.6,0.9c-0.1,0.4-0.2,0.8-0.2,1.2c0,0.4,0.1,0.8,0.2,1.2c0.1,0.4,0.3,0.7,0.5,0.9c0.2,0.3,0.5,0.5,0.8,0.6
	c0.3,0.1,0.7,0.2,1.2,0.2c0.6,0,1.2-0.2,1.6-0.5C104.8,137.8,105.1,137.3,105.2,136.7z M106.5,132.8v5.7h0.9V135
	c0-0.1,0-0.2,0.1-0.4c0.1-0.2,0.1-0.3,0.3-0.5c0.1-0.2,0.3-0.3,0.5-0.4c0.2-0.1,0.4-0.2,0.7-0.2c0.2,0,0.4,0,0.5,0.1
	c0.1,0.1,0.2,0.1,0.3,0.3c0.1,0.1,0.1,0.2,0.2,0.4c0,0.2,0.1,0.3,0.1,0.5v3.7h0.9V135c0-0.4,0.1-0.8,0.4-1.1
	c0.3-0.3,0.6-0.4,1.1-0.4c0.2,0,0.4,0,0.5,0.1c0.1,0.1,0.3,0.2,0.3,0.3c0.1,0.1,0.1,0.2,0.2,0.4c0,0.2,0,0.3,0,0.5v3.7h0.9v-4.2
	c0-0.3,0-0.5-0.1-0.7c-0.1-0.2-0.2-0.4-0.4-0.5c-0.2-0.1-0.4-0.2-0.6-0.3c-0.2-0.1-0.5-0.1-0.8-0.1c-0.4,0-0.7,0.1-1,0.3
	c-0.3,0.2-0.6,0.4-0.7,0.7c-0.1-0.4-0.3-0.6-0.6-0.7c-0.3-0.1-0.6-0.2-1-0.2c-0.8,0-1.4,0.3-1.8,1h0v-0.8H106.5z M120,135.1h-3.3
	c0-0.2,0.1-0.4,0.1-0.6c0.1-0.2,0.2-0.4,0.3-0.5c0.1-0.1,0.3-0.3,0.5-0.3c0.2-0.1,0.4-0.1,0.7-0.1c0.2,0,0.4,0,0.6,0.1
	c0.2,0.1,0.4,0.2,0.5,0.3c0.1,0.1,0.3,0.3,0.3,0.5C119.9,134.7,120,134.9,120,135.1z M120.9,136.7H120c-0.1,0.4-0.2,0.7-0.5,0.8
	c-0.2,0.2-0.6,0.3-1,0.3c-0.3,0-0.6-0.1-0.8-0.2c-0.2-0.1-0.4-0.2-0.6-0.4c-0.1-0.2-0.3-0.4-0.3-0.6c-0.1-0.2-0.1-0.5-0.1-0.7h4.3
	c0-0.3,0-0.7-0.1-1.1c-0.1-0.4-0.2-0.7-0.4-1.1c-0.2-0.3-0.5-0.6-0.8-0.8c-0.3-0.2-0.7-0.3-1.3-0.3c-0.4,0-0.7,0.1-1.1,0.2
	c-0.3,0.1-0.6,0.4-0.8,0.6c-0.2,0.3-0.4,0.6-0.5,0.9c-0.1,0.4-0.2,0.8-0.2,1.2c0,0.4,0.1,0.8,0.2,1.2c0.1,0.4,0.3,0.7,0.5,0.9
	c0.2,0.3,0.5,0.5,0.8,0.6c0.3,0.1,0.7,0.2,1.2,0.2c0.6,0,1.2-0.2,1.6-0.5C120.5,137.8,120.8,137.3,120.9,136.7z M122.1,132.8v5.7
	h0.9v-3.2c0-0.3,0-0.5,0.1-0.7c0.1-0.2,0.2-0.4,0.3-0.6c0.1-0.2,0.3-0.3,0.5-0.4c0.2-0.1,0.5-0.1,0.7-0.1c0.4,0,0.6,0.1,0.8,0.3
	c0.2,0.2,0.3,0.5,0.3,0.8v3.9h0.9v-3.7c0-0.3,0-0.6-0.1-0.8c-0.1-0.3-0.2-0.5-0.3-0.7c-0.2-0.2-0.4-0.3-0.6-0.4
	c-0.2-0.1-0.6-0.2-0.9-0.2c-0.8,0-1.5,0.3-1.8,1h0v-0.9H122.1z M129.8,132.8v-1.7h-0.9v1.7h-1v0.8h1v3.6c0,0.3,0,0.5,0.1,0.6
	c0.1,0.2,0.1,0.3,0.2,0.4c0.1,0.1,0.2,0.2,0.4,0.2c0.2,0,0.4,0,0.6,0h0.7v-0.8h-0.4c-0.1,0-0.3,0-0.4,0c-0.1,0-0.2,0-0.2-0.1
	c-0.1,0-0.1-0.1-0.1-0.2c0-0.1,0-0.2,0-0.3v-3.5h1.1v-0.8H129.8z M135.6,130.6v7.9h1V132h0l2.5,6.5h0.9l2.5-6.5h0v6.5h1v-7.9H142
	l-2.5,6.6l-2.5-6.6H135.6z M150.2,138.5c-0.2,0.1-0.4,0.1-0.7,0.1c-0.2,0-0.4-0.1-0.6-0.2c-0.1-0.1-0.2-0.4-0.2-0.7
	c-0.3,0.3-0.6,0.5-0.9,0.7c-0.3,0.1-0.7,0.2-1.1,0.2c-0.3,0-0.5,0-0.7-0.1c-0.2-0.1-0.4-0.1-0.6-0.3c-0.2-0.1-0.3-0.3-0.4-0.5
	c-0.1-0.2-0.1-0.5-0.1-0.7c0-0.3,0.1-0.6,0.2-0.8c0.1-0.2,0.3-0.4,0.4-0.5c0.2-0.1,0.4-0.2,0.6-0.3c0.2-0.1,0.5-0.1,0.7-0.2
	c0.3-0.1,0.5-0.1,0.7-0.1c0.2,0,0.4-0.1,0.6-0.1c0.2-0.1,0.3-0.1,0.4-0.2c0.1-0.1,0.2-0.2,0.2-0.4c0-0.2,0-0.4-0.1-0.5
	c-0.1-0.1-0.2-0.2-0.3-0.3c-0.1-0.1-0.3-0.1-0.4-0.1c-0.1,0-0.3,0-0.4,0c-0.4,0-0.7,0.1-1,0.2c-0.3,0.1-0.4,0.4-0.4,0.8h-0.9
	c0-0.4,0.1-0.6,0.2-0.9s0.3-0.4,0.5-0.6c0.2-0.2,0.5-0.3,0.7-0.3c0.3-0.1,0.6-0.1,0.9-0.1c0.3,0,0.5,0,0.8,0.1
	c0.3,0,0.5,0.1,0.7,0.2c0.2,0.1,0.4,0.3,0.5,0.5c0.1,0.2,0.2,0.5,0.2,0.8v2.9c0,0.2,0,0.4,0,0.5c0,0.1,0.1,0.2,0.3,0.2
	c0.1,0,0.2,0,0.3-0.1V138.5z M148.7,135.6c-0.1,0.1-0.3,0.2-0.5,0.2c-0.2,0-0.4,0.1-0.6,0.1c-0.2,0-0.4,0.1-0.6,0.1
	c-0.2,0-0.4,0.1-0.6,0.2c-0.2,0.1-0.3,0.2-0.4,0.3c-0.1,0.1-0.2,0.3-0.2,0.6c0,0.2,0,0.3,0.1,0.4c0.1,0.1,0.1,0.2,0.2,0.3
	c0.1,0.1,0.2,0.1,0.4,0.1c0.1,0,0.3,0,0.4,0c0.3,0,0.6,0,0.8-0.1c0.2-0.1,0.4-0.2,0.5-0.3c0.1-0.1,0.2-0.3,0.3-0.4
	c0.1-0.2,0.1-0.3,0.1-0.4V135.6z M156.2,138v-5.2h-0.9v0.8h0c-0.2-0.3-0.4-0.6-0.7-0.7c-0.3-0.2-0.6-0.2-1-0.2
	c-0.5,0-0.9,0.1-1.2,0.3c-0.3,0.2-0.6,0.4-0.8,0.7c-0.2,0.3-0.4,0.6-0.4,1c-0.1,0.4-0.1,0.7-0.1,1c0,0.4,0.1,0.8,0.2,1.1
	c0.1,0.3,0.3,0.6,0.5,0.9c0.2,0.3,0.5,0.5,0.8,0.6c0.3,0.2,0.7,0.2,1.1,0.2c0.4,0,0.7-0.1,1-0.2c0.3-0.2,0.6-0.4,0.7-0.8h0v0.4
	c0,0.3,0,0.6-0.1,0.9c-0.1,0.3-0.2,0.5-0.3,0.7c-0.1,0.2-0.3,0.3-0.5,0.4c-0.2,0.1-0.5,0.2-0.8,0.2c-0.2,0-0.3,0-0.5-0.1
	c-0.2,0-0.3-0.1-0.5-0.2c-0.1-0.1-0.3-0.2-0.4-0.3c-0.1-0.1-0.1-0.3-0.2-0.4h-0.9c0,0.3,0.1,0.6,0.2,0.8c0.1,0.2,0.3,0.4,0.6,0.5
	c0.2,0.1,0.5,0.2,0.7,0.3c0.3,0.1,0.6,0.1,0.8,0.1c0.9,0,1.6-0.2,2-0.7C156,139.6,156.2,138.9,156.2,138z M153.6,137.7
	c-0.3,0-0.6-0.1-0.8-0.2c-0.2-0.1-0.4-0.3-0.5-0.5c-0.1-0.2-0.2-0.4-0.3-0.7c-0.1-0.3-0.1-0.5-0.1-0.8c0-0.3,0-0.5,0.1-0.8
	c0.1-0.2,0.2-0.5,0.3-0.7c0.1-0.2,0.3-0.3,0.5-0.5c0.2-0.1,0.5-0.2,0.8-0.2c0.3,0,0.5,0.1,0.7,0.2c0.2,0.1,0.4,0.3,0.5,0.5
	c0.1,0.2,0.2,0.4,0.3,0.6c0.1,0.2,0.1,0.5,0.1,0.7c0,0.3,0,0.5-0.1,0.8c-0.1,0.3-0.2,0.5-0.3,0.7c-0.1,0.2-0.3,0.4-0.5,0.5
	C154.1,137.7,153.9,137.7,153.6,137.7z M162.8,138.5c-0.2,0.1-0.4,0.1-0.7,0.1c-0.2,0-0.4-0.1-0.6-0.2c-0.1-0.1-0.2-0.4-0.2-0.7
	c-0.3,0.3-0.6,0.5-0.9,0.7c-0.3,0.1-0.7,0.2-1.1,0.2c-0.3,0-0.5,0-0.7-0.1c-0.2-0.1-0.4-0.1-0.6-0.3c-0.2-0.1-0.3-0.3-0.4-0.5
	c-0.1-0.2-0.1-0.5-0.1-0.7c0-0.3,0.1-0.6,0.2-0.8c0.1-0.2,0.3-0.4,0.4-0.5c0.2-0.1,0.4-0.2,0.6-0.3c0.2-0.1,0.5-0.1,0.7-0.2
	c0.3-0.1,0.5-0.1,0.7-0.1c0.2,0,0.4-0.1,0.6-0.1c0.2-0.1,0.3-0.1,0.4-0.2c0.1-0.1,0.2-0.2,0.2-0.4c0-0.2,0-0.4-0.1-0.5
	c-0.1-0.1-0.2-0.2-0.3-0.3c-0.1-0.1-0.3-0.1-0.4-0.1c-0.1,0-0.3,0-0.4,0c-0.4,0-0.7,0.1-1,0.2c-0.3,0.1-0.4,0.4-0.4,0.8h-0.9
	c0-0.4,0.1-0.6,0.2-0.9s0.3-0.4,0.5-0.6c0.2-0.2,0.5-0.3,0.7-0.3c0.3-0.1,0.6-0.1,0.9-0.1c0.3,0,0.5,0,0.8,0.1
	c0.3,0,0.5,0.1,0.7,0.2c0.2,0.1,0.4,0.3,0.5,0.5c0.1,0.2,0.2,0.5,0.2,0.8v2.9c0,0.2,0,0.4,0,0.5c0,0.1,0.1,0.2,0.3,0.2
	c0.1,0,0.2,0,0.3-0.1V138.5z M161.3,135.6c-0.1,0.1-0.3,0.2-0.5,0.2c-0.2,0-0.4,0.1-0.6,0.1c-0.2,0-0.4,0.1-0.6,0.1
	c-0.2,0-0.4,0.1-0.6,0.2c-0.2,0.1-0.3,0.2-0.4,0.3c-0.1,0.1-0.2,0.3-0.2,0.6c0,0.2,0,0.3,0.1,0.4c0.1,0.1,0.1,0.2,0.2,0.3
	c0.1,0.1,0.2,0.1,0.4,0.1c0.1,0,0.3,0,0.4,0c0.3,0,0.6,0,0.8-0.1c0.2-0.1,0.4-0.2,0.5-0.3c0.1-0.1,0.2-0.3,0.3-0.4
	c0.1-0.2,0.1-0.3,0.1-0.4V135.6z M163.4,137.8v0.7h4.8v-0.8h-3.6l3.5-4.2v-0.6h-4.4v0.8h3.2L163.4,137.8z M170.4,131.8v-1.1h-0.9
	v1.1H170.4z M169.4,132.8v5.7h0.9v-5.7H169.4z M172,132.8v5.7h0.9v-3.2c0-0.3,0-0.5,0.1-0.7c0.1-0.2,0.2-0.4,0.3-0.6
	c0.1-0.2,0.3-0.3,0.5-0.4c0.2-0.1,0.5-0.1,0.7-0.1c0.4,0,0.6,0.1,0.8,0.3c0.2,0.2,0.3,0.5,0.3,0.8v3.9h0.9v-3.7c0-0.3,0-0.6-0.1-0.8
	c-0.1-0.3-0.2-0.5-0.3-0.7c-0.2-0.2-0.4-0.3-0.6-0.4c-0.2-0.1-0.6-0.2-0.9-0.2c-0.8,0-1.5,0.3-1.8,1h0v-0.9H172z M182.3,135.1H179
	c0-0.2,0.1-0.4,0.1-0.6c0.1-0.2,0.2-0.4,0.3-0.5c0.1-0.1,0.3-0.3,0.5-0.3c0.2-0.1,0.4-0.1,0.7-0.1c0.2,0,0.4,0,0.6,0.1
	c0.2,0.1,0.4,0.2,0.5,0.3c0.1,0.1,0.3,0.3,0.3,0.5C182.2,134.7,182.3,134.9,182.3,135.1z M183.2,136.7h-0.9
	c-0.1,0.4-0.2,0.7-0.5,0.8c-0.2,0.2-0.6,0.3-1,0.3c-0.3,0-0.6-0.1-0.8-0.2c-0.2-0.1-0.4-0.2-0.6-0.4c-0.1-0.2-0.3-0.4-0.3-0.6
	c-0.1-0.2-0.1-0.5-0.1-0.7h4.3c0-0.3,0-0.7-0.1-1.1c-0.1-0.4-0.2-0.7-0.4-1.1c-0.2-0.3-0.5-0.6-0.8-0.8c-0.3-0.2-0.7-0.3-1.3-0.3
	c-0.4,0-0.7,0.1-1.1,0.2c-0.3,0.1-0.6,0.4-0.8,0.6c-0.2,0.3-0.4,0.6-0.5,0.9c-0.1,0.4-0.2,0.8-0.2,1.2c0,0.4,0.1,0.8,0.2,1.2
	c0.1,0.4,0.3,0.7,0.5,0.9c0.2,0.3,0.5,0.5,0.8,0.6c0.3,0.1,0.7,0.2,1.2,0.2c0.6,0,1.2-0.2,1.6-0.5
	C182.8,137.8,183.1,137.3,183.2,136.7z"/>
<g>
	<path class="st2" d="M28,256.8h208c2.2,0,4,1.8,4,4V278c0,2.2-1.8,4-4,4H28c-2.2,0-4-1.8-4-4v-17.1C24,258.6,25.8,256.8,28,256.8z"
		/>
	<path class="st33" d="M28,257.1h208c2.1,0,3.8,1.7,3.8,3.8V278c0,2.1-1.7,3.8-3.8,3.8H28c-2.1,0-3.8-1.7-3.8-3.8v-17.1
		C24.3,258.8,26,257.1,28,257.1z"/>
	<text transform="matrix(1 0 0 1 37.0906 274.3954)" class="st34 st35">firacantik@xxx.com</text>
</g>
<path class="st36" d="M94.4,152.1h-0.9c0.1,0.8,0.3,1.4,0.7,1.8c0.4,0.4,1,0.7,1.7,0.8v0.9h0.6v-0.9c0.4,0,0.7-0.1,1-0.2
	c0.3-0.1,0.5-0.3,0.8-0.5c0.2-0.2,0.4-0.4,0.5-0.7c0.1-0.3,0.2-0.6,0.2-1c0-0.3-0.1-0.6-0.2-0.9c-0.1-0.2-0.3-0.4-0.5-0.6
	c-0.2-0.2-0.4-0.3-0.6-0.4c-0.2-0.1-0.4-0.2-0.5-0.2l-0.7-0.2v-2.7c0.7,0.1,1.1,0.6,1.2,1.3h0.9c-0.1-0.6-0.4-1.2-0.7-1.5
	c-0.4-0.4-0.8-0.6-1.4-0.7v-0.7H96v0.7c-0.3,0-0.6,0.1-0.9,0.2c-0.3,0.1-0.5,0.3-0.7,0.5c-0.2,0.2-0.4,0.4-0.5,0.7
	c-0.1,0.3-0.2,0.6-0.2,0.9c0,0.3,0,0.6,0.1,0.8c0.1,0.2,0.2,0.4,0.4,0.6c0.2,0.2,0.4,0.3,0.7,0.4c0.3,0.1,0.6,0.2,1,0.3v2.9
	c-0.4-0.1-0.8-0.3-1.1-0.5C94.6,153,94.5,152.6,94.4,152.1z M96.6,153.8V151c0.2,0.1,0.4,0.1,0.6,0.2c0.2,0.1,0.3,0.2,0.5,0.3
	c0.1,0.1,0.2,0.2,0.3,0.4c0.1,0.1,0.1,0.3,0.1,0.5c0,0.2,0,0.4-0.1,0.6c-0.1,0.2-0.2,0.3-0.3,0.4c-0.1,0.1-0.3,0.2-0.5,0.3
	C97,153.8,96.8,153.8,96.6,153.8z M96,147.3v2.6c-0.2-0.1-0.4-0.1-0.5-0.2c-0.2-0.1-0.3-0.1-0.4-0.2c-0.1-0.1-0.2-0.2-0.3-0.3
	c-0.1-0.1-0.1-0.3-0.1-0.5c0-0.4,0.1-0.7,0.4-0.9C95.3,147.5,95.6,147.4,96,147.3z M103.5,154.5v-7.8h-0.7c-0.1,0.3-0.1,0.5-0.3,0.7
	c-0.1,0.2-0.3,0.3-0.5,0.5c-0.2,0.1-0.4,0.2-0.7,0.2c-0.2,0-0.5,0.1-0.8,0.1v0.7h2v5.6H103.5z M109.6,151.9H107l2.6-3.8h0V151.9z
	 M110.5,151.9v-5.1h-0.7l-3.6,5.1v0.9h3.4v1.8h0.9v-1.8h1.1v-0.8H110.5z M116.2,148.8v7.9h0.9v-2.9h0c0.1,0.2,0.2,0.3,0.4,0.4
	c0.2,0.1,0.3,0.2,0.5,0.3c0.2,0.1,0.3,0.1,0.5,0.1c0.2,0,0.3,0,0.5,0c0.4,0,0.8-0.1,1.1-0.2c0.3-0.2,0.6-0.4,0.8-0.6
	c0.2-0.3,0.4-0.6,0.5-0.9c0.1-0.4,0.2-0.7,0.2-1.1c0-0.4-0.1-0.8-0.2-1.1c-0.1-0.4-0.3-0.7-0.5-0.9c-0.2-0.3-0.5-0.5-0.8-0.7
	c-0.3-0.2-0.7-0.2-1.1-0.2c-0.4,0-0.8,0.1-1.1,0.2c-0.3,0.1-0.6,0.4-0.7,0.7h0v-0.8H116.2z M120.6,151.6c0,0.3,0,0.6-0.1,0.8
	c-0.1,0.3-0.2,0.5-0.3,0.7c-0.1,0.2-0.3,0.4-0.5,0.5c-0.2,0.1-0.5,0.2-0.8,0.2c-0.3,0-0.6-0.1-0.8-0.2c-0.2-0.1-0.4-0.3-0.6-0.5
	c-0.1-0.2-0.2-0.4-0.3-0.7c-0.1-0.3-0.1-0.5-0.1-0.8c0-0.3,0-0.5,0.1-0.8c0.1-0.3,0.2-0.5,0.3-0.7c0.1-0.2,0.3-0.4,0.5-0.5
	c0.2-0.1,0.5-0.2,0.8-0.2c0.3,0,0.6,0.1,0.8,0.2c0.2,0.1,0.4,0.3,0.6,0.5c0.1,0.2,0.3,0.4,0.3,0.7
	C120.5,151.1,120.6,151.3,120.6,151.6z M126.8,151.1h-3.3c0-0.2,0.1-0.4,0.1-0.6c0.1-0.2,0.2-0.4,0.3-0.5c0.1-0.1,0.3-0.3,0.5-0.3
	c0.2-0.1,0.4-0.1,0.7-0.1c0.2,0,0.4,0,0.6,0.1c0.2,0.1,0.4,0.2,0.5,0.3c0.1,0.1,0.3,0.3,0.3,0.5
	C126.7,150.7,126.8,150.9,126.8,151.1z M127.7,152.7h-0.9c-0.1,0.4-0.2,0.7-0.5,0.8c-0.2,0.2-0.6,0.3-1,0.3c-0.3,0-0.6-0.1-0.8-0.2
	c-0.2-0.1-0.4-0.2-0.6-0.4c-0.1-0.2-0.3-0.4-0.3-0.6c-0.1-0.2-0.1-0.5-0.1-0.7h4.3c0-0.3,0-0.7-0.1-1.1c-0.1-0.4-0.2-0.7-0.4-1.1
	c-0.2-0.3-0.5-0.6-0.8-0.8c-0.3-0.2-0.7-0.3-1.3-0.3c-0.4,0-0.7,0.1-1.1,0.2c-0.3,0.1-0.6,0.4-0.8,0.6c-0.2,0.3-0.4,0.6-0.6,0.9
	c-0.1,0.4-0.2,0.8-0.2,1.2c0,0.4,0.1,0.8,0.2,1.2c0.1,0.4,0.3,0.7,0.5,0.9c0.2,0.3,0.5,0.5,0.8,0.6c0.3,0.1,0.7,0.2,1.2,0.2
	c0.6,0,1.2-0.2,1.6-0.5C127.3,153.8,127.6,153.3,127.7,152.7z M128.9,148.8v5.7h0.9V152c0-0.4,0-0.7,0.1-1c0.1-0.3,0.2-0.5,0.4-0.7
	c0.2-0.2,0.4-0.3,0.6-0.5c0.3-0.1,0.6-0.2,1-0.2v-1c-0.5,0-0.9,0.1-1.3,0.3s-0.6,0.6-0.8,1h0v-1.2H128.9z M136.8,151.7
	c0-0.3,0-0.6,0.1-0.8c0.1-0.3,0.2-0.5,0.3-0.7c0.1-0.2,0.3-0.4,0.5-0.5c0.2-0.1,0.5-0.2,0.8-0.2c0.3,0,0.6,0.1,0.8,0.2
	c0.2,0.1,0.4,0.3,0.6,0.5c0.1,0.2,0.3,0.4,0.3,0.7c0.1,0.3,0.1,0.5,0.1,0.8c0,0.3,0,0.5-0.1,0.8c-0.1,0.3-0.2,0.5-0.3,0.7
	c-0.1,0.2-0.3,0.4-0.5,0.5c-0.2,0.1-0.5,0.2-0.8,0.2c-0.3,0-0.6-0.1-0.8-0.2c-0.2-0.1-0.4-0.3-0.6-0.5c-0.1-0.2-0.2-0.4-0.3-0.7
	C136.8,152.2,136.8,152,136.8,151.7z M141.2,156.7v-7.9h-0.9v0.8h0c-0.1-0.2-0.2-0.3-0.4-0.4c-0.1-0.1-0.3-0.2-0.5-0.3
	c-0.2-0.1-0.3-0.1-0.5-0.2c-0.2,0-0.3,0-0.5,0c-0.4,0-0.8,0.1-1.1,0.2c-0.3,0.2-0.6,0.4-0.8,0.6c-0.2,0.3-0.4,0.6-0.5,0.9
	c-0.1,0.4-0.2,0.7-0.2,1.1c0,0.4,0.1,0.8,0.2,1.1c0.1,0.4,0.3,0.7,0.5,0.9c0.2,0.3,0.5,0.5,0.8,0.6c0.3,0.2,0.7,0.2,1.2,0.2
	c0.4,0,0.8-0.1,1.1-0.2c0.3-0.1,0.6-0.4,0.7-0.7h0v2.9H141.2z M147.5,154.5v-5.7h-0.9v3.2c0,0.3,0,0.5-0.1,0.7
	c-0.1,0.2-0.2,0.4-0.3,0.6c-0.1,0.2-0.3,0.3-0.5,0.4c-0.2,0.1-0.5,0.1-0.7,0.1c-0.4,0-0.6-0.1-0.8-0.3c-0.2-0.2-0.3-0.5-0.3-0.8
	v-3.9h-0.9v3.7c0,0.3,0,0.6,0.1,0.8c0.1,0.2,0.2,0.5,0.3,0.6c0.2,0.2,0.4,0.3,0.6,0.4c0.2,0.1,0.6,0.1,0.9,0.1
	c0.4,0,0.8-0.1,1.1-0.2c0.3-0.2,0.6-0.4,0.8-0.8h0v0.9H147.5z M154.2,154.5c-0.2,0.1-0.4,0.1-0.7,0.1c-0.2,0-0.4-0.1-0.6-0.2
	c-0.1-0.1-0.2-0.4-0.2-0.7c-0.3,0.3-0.6,0.5-0.9,0.7c-0.3,0.1-0.7,0.2-1.1,0.2c-0.3,0-0.5,0-0.7-0.1c-0.2-0.1-0.4-0.1-0.6-0.3
	c-0.2-0.1-0.3-0.3-0.4-0.5c-0.1-0.2-0.1-0.5-0.1-0.7c0-0.3,0.1-0.6,0.2-0.8c0.1-0.2,0.3-0.4,0.4-0.5c0.2-0.1,0.4-0.2,0.6-0.3
	c0.2-0.1,0.5-0.1,0.7-0.2c0.3-0.1,0.5-0.1,0.7-0.1c0.2,0,0.4-0.1,0.6-0.1c0.2-0.1,0.3-0.1,0.4-0.2c0.1-0.1,0.2-0.2,0.2-0.4
	c0-0.2,0-0.4-0.1-0.5c-0.1-0.1-0.2-0.2-0.3-0.3c-0.1-0.1-0.3-0.1-0.4-0.1c-0.1,0-0.3,0-0.4,0c-0.4,0-0.7,0.1-1,0.2
	c-0.3,0.1-0.4,0.4-0.4,0.8H149c0-0.4,0.1-0.6,0.2-0.9s0.3-0.4,0.5-0.6c0.2-0.2,0.5-0.3,0.7-0.3c0.3-0.1,0.6-0.1,0.9-0.1
	c0.3,0,0.5,0,0.8,0.1c0.3,0,0.5,0.1,0.7,0.2c0.2,0.1,0.4,0.3,0.5,0.5c0.1,0.2,0.2,0.5,0.2,0.8v2.9c0,0.2,0,0.4,0,0.5
	c0,0.1,0.1,0.2,0.3,0.2c0.1,0,0.2,0,0.3-0.1V154.5z M152.6,151.6c-0.1,0.1-0.3,0.2-0.5,0.2c-0.2,0-0.4,0.1-0.6,0.1
	c-0.2,0-0.4,0.1-0.6,0.1c-0.2,0-0.4,0.1-0.6,0.2c-0.2,0.1-0.3,0.2-0.4,0.3c-0.1,0.1-0.2,0.3-0.2,0.6c0,0.2,0,0.3,0.1,0.4
	c0.1,0.1,0.1,0.2,0.2,0.3c0.1,0.1,0.2,0.1,0.4,0.1c0.1,0,0.3,0,0.4,0c0.3,0,0.6,0,0.8-0.1c0.2-0.1,0.4-0.2,0.5-0.3
	c0.1-0.1,0.2-0.3,0.3-0.4c0.1-0.2,0.1-0.3,0.1-0.4V151.6z M155.2,148.8v5.7h0.9V152c0-0.4,0-0.7,0.1-1c0.1-0.3,0.2-0.5,0.4-0.7
	c0.2-0.2,0.4-0.3,0.6-0.5c0.3-0.1,0.6-0.2,1-0.2v-1c-0.5,0-0.9,0.1-1.3,0.3c-0.3,0.2-0.6,0.6-0.8,1h0v-1.2H155.2z M160.4,148.8v-1.7
	h-0.9v1.7h-1v0.8h1v3.6c0,0.3,0,0.5,0.1,0.6c0.1,0.2,0.1,0.3,0.2,0.4c0.1,0.1,0.2,0.2,0.4,0.2c0.2,0,0.4,0,0.6,0h0.7v-0.8h-0.4
	c-0.1,0-0.3,0-0.4,0c-0.1,0-0.2,0-0.2-0.1c-0.1,0-0.1-0.1-0.1-0.2c0-0.1,0-0.2,0-0.3v-3.5h1.1v-0.8H160.4z M166.7,151.1h-3.3
	c0-0.2,0.1-0.4,0.1-0.6c0.1-0.2,0.2-0.4,0.3-0.5c0.1-0.1,0.3-0.3,0.5-0.3c0.2-0.1,0.4-0.1,0.7-0.1c0.2,0,0.4,0,0.6,0.1
	c0.2,0.1,0.4,0.2,0.5,0.3c0.1,0.1,0.3,0.3,0.3,0.5C166.6,150.7,166.7,150.9,166.7,151.1z M167.6,152.7h-0.9
	c-0.1,0.4-0.2,0.7-0.5,0.8c-0.2,0.2-0.6,0.3-1,0.3c-0.3,0-0.6-0.1-0.8-0.2c-0.2-0.1-0.4-0.2-0.6-0.4c-0.1-0.2-0.3-0.4-0.3-0.6
	c-0.1-0.2-0.1-0.5-0.1-0.7h4.3c0-0.3,0-0.7-0.1-1.1c-0.1-0.4-0.2-0.7-0.4-1.1c-0.2-0.3-0.5-0.6-0.8-0.8c-0.3-0.2-0.7-0.3-1.3-0.3
	c-0.4,0-0.7,0.1-1.1,0.2c-0.3,0.1-0.6,0.4-0.8,0.6c-0.2,0.3-0.4,0.6-0.6,0.9c-0.1,0.4-0.2,0.8-0.2,1.2c0,0.4,0.1,0.8,0.2,1.2
	c0.1,0.4,0.3,0.7,0.5,0.9c0.2,0.3,0.5,0.5,0.8,0.6c0.3,0.1,0.7,0.2,1.2,0.2c0.6,0,1.2-0.2,1.6-0.5
	C167.2,153.8,167.5,153.3,167.6,152.7z M168.8,148.8v5.7h0.9V152c0-0.4,0-0.7,0.1-1c0.1-0.3,0.2-0.5,0.4-0.7
	c0.2-0.2,0.4-0.3,0.6-0.5c0.3-0.1,0.6-0.2,1-0.2v-1c-0.5,0-0.9,0.1-1.3,0.3s-0.6,0.6-0.8,1h0v-1.2H168.8z"/>
<path class="st36" d="M91.3,220.6c0-0.4,0.1-0.8,0.2-1.2c0.1-0.4,0.3-0.7,0.5-1c0.2-0.3,0.5-0.6,0.8-0.7c0.3-0.2,0.8-0.3,1.2-0.3
	c0.5,0,0.9,0.1,1.2,0.3c0.3,0.2,0.6,0.4,0.8,0.7c0.2,0.3,0.4,0.7,0.5,1c0.1,0.4,0.2,0.8,0.2,1.2c0,0.4-0.1,0.8-0.2,1.2
	c-0.1,0.4-0.3,0.7-0.5,1c-0.2,0.3-0.5,0.6-0.8,0.7c-0.3,0.2-0.8,0.3-1.2,0.3c-0.5,0-0.9-0.1-1.2-0.3c-0.3-0.2-0.6-0.4-0.8-0.7
	s-0.4-0.7-0.5-1C91.4,221.4,91.3,221,91.3,220.6z M90.3,220.6c0,0.5,0.1,1.1,0.2,1.6c0.2,0.5,0.4,0.9,0.7,1.3
	c0.3,0.4,0.7,0.7,1.2,0.9c0.5,0.2,1,0.3,1.6,0.3c0.6,0,1.2-0.1,1.6-0.3c0.5-0.2,0.9-0.5,1.2-0.9c0.3-0.4,0.6-0.8,0.7-1.3
	c0.2-0.5,0.2-1,0.2-1.6c0-0.5-0.1-1-0.2-1.5c-0.2-0.5-0.4-0.9-0.7-1.3c-0.3-0.4-0.7-0.7-1.2-0.9c-0.5-0.2-1-0.3-1.6-0.3
	c-0.6,0-1.2,0.1-1.6,0.3c-0.5,0.2-0.9,0.5-1.2,0.9c-0.3,0.4-0.6,0.8-0.7,1.3C90.4,219.5,90.3,220,90.3,220.6z M99.1,218.8v5.7h0.9
	V222c0-0.4,0-0.7,0.1-1c0.1-0.3,0.2-0.5,0.4-0.7c0.2-0.2,0.4-0.3,0.6-0.5c0.3-0.1,0.6-0.2,1-0.2v-1c-0.5,0-0.9,0.1-1.3,0.3
	c-0.3,0.2-0.6,0.6-0.8,1h0v-1.2H99.1z M106.3,218.8v7.9h0.9v-2.9h0c0.1,0.2,0.2,0.3,0.4,0.4c0.2,0.1,0.3,0.2,0.5,0.3
	c0.2,0.1,0.3,0.1,0.5,0.1c0.2,0,0.3,0,0.5,0c0.4,0,0.8-0.1,1.1-0.2c0.3-0.2,0.6-0.4,0.8-0.6c0.2-0.3,0.4-0.6,0.5-0.9
	c0.1-0.4,0.2-0.7,0.2-1.1c0-0.4-0.1-0.8-0.2-1.1c-0.1-0.4-0.3-0.7-0.5-0.9c-0.2-0.3-0.5-0.5-0.8-0.7c-0.3-0.2-0.7-0.2-1.1-0.2
	c-0.4,0-0.8,0.1-1.1,0.2c-0.3,0.1-0.6,0.4-0.7,0.7h0v-0.8H106.3z M110.7,221.6c0,0.3,0,0.6-0.1,0.8c-0.1,0.3-0.2,0.5-0.3,0.7
	c-0.1,0.2-0.3,0.4-0.5,0.5c-0.2,0.1-0.5,0.2-0.8,0.2c-0.3,0-0.6-0.1-0.8-0.2c-0.2-0.1-0.4-0.3-0.6-0.5c-0.1-0.2-0.2-0.4-0.3-0.7
	c-0.1-0.3-0.1-0.5-0.1-0.8c0-0.3,0-0.5,0.1-0.8c0.1-0.3,0.2-0.5,0.3-0.7c0.1-0.2,0.3-0.4,0.5-0.5c0.2-0.1,0.5-0.2,0.8-0.2
	c0.3,0,0.6,0.1,0.8,0.2c0.2,0.1,0.4,0.3,0.5,0.5c0.1,0.2,0.3,0.4,0.3,0.7C110.7,221.1,110.7,221.3,110.7,221.6z M118,224.5
	c-0.2,0.1-0.4,0.1-0.7,0.1c-0.2,0-0.4-0.1-0.6-0.2c-0.1-0.1-0.2-0.4-0.2-0.7c-0.3,0.3-0.6,0.5-0.9,0.7c-0.3,0.1-0.7,0.2-1.1,0.2
	c-0.3,0-0.5,0-0.7-0.1c-0.2-0.1-0.4-0.1-0.6-0.3c-0.2-0.1-0.3-0.3-0.4-0.5c-0.1-0.2-0.1-0.5-0.1-0.7c0-0.3,0.1-0.6,0.2-0.8
	c0.1-0.2,0.3-0.4,0.4-0.5c0.2-0.1,0.4-0.2,0.6-0.3c0.2-0.1,0.5-0.1,0.7-0.2c0.3-0.1,0.5-0.1,0.7-0.1c0.2,0,0.4-0.1,0.6-0.1
	c0.2-0.1,0.3-0.1,0.4-0.2c0.1-0.1,0.2-0.2,0.2-0.4c0-0.2,0-0.4-0.1-0.5c-0.1-0.1-0.2-0.2-0.3-0.3c-0.1-0.1-0.3-0.1-0.4-0.1
	c-0.1,0-0.3,0-0.4,0c-0.4,0-0.7,0.1-1,0.2c-0.3,0.1-0.4,0.4-0.4,0.8h-0.9c0-0.4,0.1-0.6,0.2-0.9c0.1-0.2,0.3-0.4,0.5-0.6
	c0.2-0.2,0.5-0.3,0.7-0.3c0.3-0.1,0.6-0.1,0.9-0.1c0.3,0,0.5,0,0.8,0.1c0.3,0,0.5,0.1,0.7,0.2c0.2,0.1,0.4,0.3,0.5,0.5
	c0.1,0.2,0.2,0.5,0.2,0.8v2.9c0,0.2,0,0.4,0,0.5c0,0.1,0.1,0.2,0.3,0.2c0.1,0,0.2,0,0.3-0.1V224.5z M116.5,221.6
	c-0.1,0.1-0.3,0.2-0.5,0.2c-0.2,0-0.4,0.1-0.6,0.1c-0.2,0-0.4,0.1-0.6,0.1c-0.2,0-0.4,0.1-0.6,0.2c-0.2,0.1-0.3,0.2-0.4,0.3
	c-0.1,0.1-0.2,0.3-0.2,0.6c0,0.2,0,0.3,0.1,0.4c0.1,0.1,0.1,0.2,0.2,0.3c0.1,0.1,0.2,0.1,0.4,0.1c0.1,0,0.3,0,0.4,0
	c0.3,0,0.6,0,0.8-0.1c0.2-0.1,0.4-0.2,0.5-0.3c0.1-0.1,0.2-0.3,0.3-0.4c0.1-0.2,0.1-0.3,0.1-0.4V221.6z M121.3,225.3
	c-0.1,0.3-0.2,0.5-0.3,0.7c-0.1,0.2-0.2,0.3-0.4,0.5c-0.1,0.1-0.3,0.2-0.4,0.3c-0.2,0.1-0.3,0.1-0.5,0.1c-0.1,0-0.2,0-0.3,0
	c-0.1,0-0.2,0-0.3-0.1v-0.9c0.1,0,0.2,0.1,0.3,0.1c0.1,0,0.2,0,0.3,0c0.2,0,0.3,0,0.5-0.1c0.1-0.1,0.2-0.2,0.3-0.4l0.4-1l-2.3-5.7
	h1.1l1.7,4.7h0l1.6-4.7h1L121.3,225.3z M133.7,224.5l1.8-5.7h-1l-1.3,4.7h0l-1.2-4.7h-1l-1.1,4.7h0l-1.3-4.7h-1l1.8,5.7h1l1.1-4.5h0
	l1.2,4.5H133.7z M137.6,217.8v-1.1h-0.9v1.1H137.6z M136.6,218.8v5.7h0.9v-5.7H136.6z M140.5,218.8v-1.7h-0.9v1.7h-1v0.8h1v3.6
	c0,0.3,0,0.5,0.1,0.6c0.1,0.2,0.1,0.3,0.2,0.4c0.1,0.1,0.2,0.2,0.4,0.2c0.2,0,0.4,0,0.6,0h0.7v-0.8h-0.4c-0.1,0-0.3,0-0.4,0
	c-0.1,0-0.2,0-0.2-0.1c-0.1,0-0.1-0.1-0.1-0.2c0-0.1,0-0.2,0-0.3v-3.5h1.1v-0.8H140.5z M142.9,216.6v7.9h0.9v-3.2
	c0-0.3,0-0.5,0.1-0.7c0.1-0.2,0.2-0.4,0.3-0.6c0.1-0.2,0.3-0.3,0.5-0.4c0.2-0.1,0.5-0.1,0.7-0.1c0.4,0,0.6,0.1,0.8,0.3
	c0.2,0.2,0.3,0.5,0.3,0.8v3.9h0.9v-3.7c0-0.3,0-0.6-0.1-0.8c-0.1-0.3-0.2-0.5-0.3-0.7c-0.2-0.2-0.4-0.3-0.6-0.4
	c-0.2-0.1-0.6-0.2-0.9-0.2c-0.2,0-0.3,0-0.5,0.1c-0.2,0-0.3,0.1-0.5,0.2c-0.2,0.1-0.3,0.2-0.4,0.3c-0.1,0.1-0.2,0.3-0.3,0.4h0v-3
	H142.9z M156.3,220.6h1c0-0.3-0.1-0.6-0.3-0.9c-0.1-0.2-0.3-0.5-0.5-0.6c-0.2-0.2-0.5-0.3-0.7-0.4c-0.3-0.1-0.6-0.1-0.9-0.1
	c-0.4,0-0.8,0.1-1.2,0.2c-0.3,0.2-0.6,0.4-0.8,0.6c-0.2,0.3-0.4,0.6-0.5,1c-0.1,0.4-0.2,0.8-0.2,1.2c0,0.4,0.1,0.8,0.2,1.2
	c0.1,0.4,0.3,0.7,0.5,0.9c0.2,0.3,0.5,0.5,0.8,0.6c0.3,0.1,0.7,0.2,1.2,0.2c0.7,0,1.3-0.2,1.7-0.6c0.4-0.4,0.7-0.9,0.8-1.6h-1
	c-0.1,0.4-0.2,0.8-0.5,1c-0.3,0.2-0.6,0.4-1.1,0.4c-0.3,0-0.5-0.1-0.8-0.2c-0.2-0.1-0.4-0.3-0.5-0.5c-0.1-0.2-0.2-0.4-0.3-0.7
	c-0.1-0.2-0.1-0.5-0.1-0.8c0-0.3,0-0.6,0.1-0.8c0.1-0.3,0.2-0.5,0.3-0.7c0.1-0.2,0.3-0.4,0.6-0.5c0.2-0.1,0.5-0.2,0.8-0.2
	c0.4,0,0.7,0.1,0.9,0.3S156.3,220.3,156.3,220.6z M163.6,224.5c-0.2,0.1-0.4,0.1-0.7,0.1c-0.2,0-0.4-0.1-0.6-0.2
	c-0.1-0.1-0.2-0.4-0.2-0.7c-0.3,0.3-0.6,0.5-0.9,0.7c-0.3,0.1-0.7,0.2-1.1,0.2c-0.3,0-0.5,0-0.7-0.1c-0.2-0.1-0.4-0.1-0.6-0.3
	c-0.2-0.1-0.3-0.3-0.4-0.5c-0.1-0.2-0.1-0.5-0.1-0.7c0-0.3,0.1-0.6,0.2-0.8c0.1-0.2,0.3-0.4,0.4-0.5c0.2-0.1,0.4-0.2,0.6-0.3
	c0.2-0.1,0.5-0.1,0.7-0.2c0.3-0.1,0.5-0.1,0.7-0.1c0.2,0,0.4-0.1,0.6-0.1c0.2-0.1,0.3-0.1,0.4-0.2c0.1-0.1,0.2-0.2,0.2-0.4
	c0-0.2,0-0.4-0.1-0.5c-0.1-0.1-0.2-0.2-0.3-0.3c-0.1-0.1-0.3-0.1-0.4-0.1c-0.1,0-0.3,0-0.4,0c-0.4,0-0.7,0.1-1,0.2
	c-0.3,0.1-0.4,0.4-0.4,0.8h-0.9c0-0.4,0.1-0.6,0.2-0.9c0.1-0.2,0.3-0.4,0.5-0.6c0.2-0.2,0.5-0.3,0.7-0.3c0.3-0.1,0.6-0.1,0.9-0.1
	c0.3,0,0.5,0,0.8,0.1c0.3,0,0.5,0.1,0.7,0.2c0.2,0.1,0.4,0.3,0.5,0.5c0.1,0.2,0.2,0.5,0.2,0.8v2.9c0,0.2,0,0.4,0,0.5
	c0,0.1,0.1,0.2,0.3,0.2c0.1,0,0.2,0,0.3-0.1V224.5z M162.1,221.6c-0.1,0.1-0.3,0.2-0.5,0.2c-0.2,0-0.4,0.1-0.6,0.1
	c-0.2,0-0.4,0.1-0.6,0.1c-0.2,0-0.4,0.1-0.6,0.2c-0.2,0.1-0.3,0.2-0.4,0.3c-0.1,0.1-0.2,0.3-0.2,0.6c0,0.2,0,0.3,0.1,0.4
	c0.1,0.1,0.1,0.2,0.2,0.3c0.1,0.1,0.2,0.1,0.4,0.1c0.1,0,0.3,0,0.4,0c0.3,0,0.6,0,0.8-0.1c0.2-0.1,0.4-0.2,0.5-0.3
	c0.1-0.1,0.2-0.3,0.3-0.4c0.1-0.2,0.1-0.3,0.1-0.4V221.6z M164.7,218.8v5.7h0.9V222c0-0.4,0-0.7,0.1-1c0.1-0.3,0.2-0.5,0.4-0.7
	c0.2-0.2,0.4-0.3,0.6-0.5c0.3-0.1,0.6-0.2,1-0.2v-1c-0.5,0-0.9,0.1-1.3,0.3c-0.3,0.2-0.6,0.6-0.8,1h0v-1.2H164.7z M169,221.7
	c0-0.3,0-0.6,0.1-0.8c0.1-0.3,0.2-0.5,0.3-0.7c0.1-0.2,0.3-0.4,0.5-0.5c0.2-0.1,0.5-0.2,0.8-0.2c0.3,0,0.6,0.1,0.8,0.2
	c0.2,0.1,0.4,0.3,0.6,0.5c0.1,0.2,0.3,0.4,0.3,0.7c0.1,0.3,0.1,0.5,0.1,0.8c0,0.3,0,0.5-0.1,0.8c-0.1,0.3-0.2,0.5-0.3,0.7
	c-0.1,0.2-0.3,0.4-0.5,0.5c-0.2,0.1-0.5,0.2-0.8,0.2c-0.3,0-0.6-0.1-0.8-0.2c-0.2-0.1-0.4-0.3-0.6-0.5c-0.1-0.2-0.2-0.4-0.3-0.7
	C169.1,222.2,169,222,169,221.7z M173.4,224.5v-7.9h-0.9v2.9h0c-0.1-0.2-0.2-0.3-0.4-0.4c-0.1-0.1-0.3-0.2-0.5-0.3
	c-0.2-0.1-0.3-0.1-0.5-0.2c-0.2,0-0.3,0-0.5,0c-0.4,0-0.8,0.1-1.1,0.2c-0.3,0.2-0.6,0.4-0.8,0.6c-0.2,0.3-0.4,0.6-0.5,0.9
	c-0.1,0.4-0.2,0.7-0.2,1.1c0,0.4,0.1,0.8,0.2,1.1c0.1,0.4,0.3,0.7,0.5,0.9c0.2,0.3,0.5,0.5,0.8,0.6c0.3,0.2,0.7,0.2,1.2,0.2
	c0.4,0,0.8-0.1,1.1-0.2c0.3-0.1,0.6-0.4,0.7-0.7h0v0.8H173.4z"/>
<path class="st36" d="M24.9,242.6v7.9h5.5v-0.9h-4.4v-2.7H30V246h-4.1v-2.5h4.4v-0.9H24.9z M31.7,244.8v5.7h0.9V247
	c0-0.1,0-0.2,0.1-0.4c0.1-0.2,0.1-0.3,0.3-0.5c0.1-0.2,0.3-0.3,0.5-0.4c0.2-0.1,0.4-0.2,0.7-0.2c0.2,0,0.4,0,0.5,0.1
	c0.1,0.1,0.2,0.1,0.3,0.3c0.1,0.1,0.1,0.2,0.2,0.4c0,0.2,0.1,0.3,0.1,0.5v3.7h0.9V247c0-0.4,0.1-0.8,0.4-1.1
	c0.3-0.3,0.6-0.4,1.1-0.4c0.2,0,0.4,0,0.5,0.1c0.1,0.1,0.3,0.2,0.3,0.3c0.1,0.1,0.1,0.2,0.2,0.4c0,0.2,0,0.3,0,0.5v3.7h0.9v-4.2
	c0-0.3,0-0.5-0.1-0.7c-0.1-0.2-0.2-0.4-0.4-0.5c-0.2-0.1-0.4-0.2-0.6-0.3c-0.2-0.1-0.5-0.1-0.8-0.1c-0.4,0-0.7,0.1-1,0.3
	c-0.3,0.2-0.6,0.4-0.7,0.7c-0.1-0.4-0.3-0.6-0.6-0.7c-0.3-0.1-0.6-0.2-1-0.2c-0.8,0-1.4,0.3-1.8,1h0v-0.8H31.7z M46.3,250.5
	c-0.2,0.1-0.4,0.1-0.7,0.1c-0.2,0-0.4-0.1-0.6-0.2c-0.1-0.1-0.2-0.4-0.2-0.7c-0.3,0.3-0.6,0.5-0.9,0.7c-0.3,0.1-0.7,0.2-1.1,0.2
	c-0.3,0-0.5,0-0.7-0.1c-0.2-0.1-0.4-0.1-0.6-0.3c-0.2-0.1-0.3-0.3-0.4-0.5c-0.1-0.2-0.1-0.5-0.1-0.7c0-0.3,0.1-0.6,0.2-0.8
	c0.1-0.2,0.3-0.4,0.4-0.5c0.2-0.1,0.4-0.2,0.6-0.3c0.2-0.1,0.5-0.1,0.7-0.2c0.3-0.1,0.5-0.1,0.7-0.1c0.2,0,0.4-0.1,0.6-0.1
	c0.2-0.1,0.3-0.1,0.4-0.2c0.1-0.1,0.2-0.2,0.2-0.4c0-0.2,0-0.4-0.1-0.5c-0.1-0.1-0.2-0.2-0.3-0.3c-0.1-0.1-0.3-0.1-0.4-0.1
	c-0.1,0-0.3,0-0.4,0c-0.4,0-0.7,0.1-1,0.2c-0.3,0.1-0.4,0.4-0.4,0.8h-0.9c0-0.4,0.1-0.6,0.2-0.9s0.3-0.4,0.5-0.6
	c0.2-0.2,0.5-0.3,0.7-0.3c0.3-0.1,0.6-0.1,0.9-0.1c0.3,0,0.5,0,0.8,0.1c0.3,0,0.5,0.1,0.7,0.2c0.2,0.1,0.4,0.3,0.5,0.5
	c0.1,0.2,0.2,0.5,0.2,0.8v2.9c0,0.2,0,0.4,0,0.5c0,0.1,0.1,0.2,0.3,0.2c0.1,0,0.2,0,0.3-0.1V250.5z M44.8,247.6
	c-0.1,0.1-0.3,0.2-0.5,0.2c-0.2,0-0.4,0.1-0.6,0.1c-0.2,0-0.4,0.1-0.6,0.1c-0.2,0-0.4,0.1-0.6,0.2c-0.2,0.1-0.3,0.2-0.4,0.3
	c-0.1,0.1-0.2,0.3-0.2,0.6c0,0.2,0,0.3,0.1,0.4c0.1,0.1,0.1,0.2,0.2,0.3c0.1,0.1,0.2,0.1,0.4,0.1c0.1,0,0.3,0,0.4,0
	c0.3,0,0.6,0,0.8-0.1c0.2-0.1,0.4-0.2,0.5-0.3c0.1-0.1,0.2-0.3,0.3-0.4c0.1-0.2,0.1-0.3,0.1-0.4V247.6z M48.3,243.8v-1.1h-0.9v1.1
	H48.3z M47.4,244.8v5.7h0.9v-5.7H47.4z M50,242.6v7.9H51v-7.9H50z"/>
<path class="st36" d="M30.4,305h1c-0.1-0.4-0.2-0.8-0.4-1.1c-0.2-0.3-0.4-0.6-0.7-0.8c-0.3-0.2-0.6-0.4-1-0.5
	c-0.4-0.1-0.8-0.2-1.2-0.2c-0.6,0-1.1,0.1-1.6,0.3c-0.5,0.2-0.9,0.5-1.2,0.9c-0.3,0.4-0.5,0.8-0.7,1.3c-0.2,0.5-0.2,1-0.2,1.6
	c0,0.6,0.1,1.1,0.2,1.6c0.2,0.5,0.4,0.9,0.7,1.3c0.3,0.4,0.7,0.7,1.1,0.9c0.5,0.2,1,0.3,1.6,0.3c1,0,1.8-0.3,2.4-0.8
	c0.6-0.5,0.9-1.3,1-2.3h-1c0,0.3-0.1,0.6-0.2,0.9c-0.1,0.3-0.3,0.5-0.5,0.7c-0.2,0.2-0.4,0.4-0.7,0.5c-0.3,0.1-0.6,0.2-0.9,0.2
	c-0.5,0-0.9-0.1-1.2-0.3c-0.3-0.2-0.6-0.4-0.8-0.7c-0.2-0.3-0.4-0.6-0.5-1c-0.1-0.4-0.2-0.8-0.2-1.3c0-0.4,0.1-0.8,0.2-1.2
	c0.1-0.4,0.3-0.7,0.5-1c0.2-0.3,0.5-0.5,0.8-0.7c0.3-0.2,0.7-0.3,1.2-0.3c0.5,0,1,0.1,1.4,0.4C30,304,30.3,304.5,30.4,305z
	 M37.9,310.5c-0.2,0.1-0.4,0.1-0.7,0.1c-0.2,0-0.4-0.1-0.6-0.2c-0.1-0.1-0.2-0.4-0.2-0.7c-0.3,0.3-0.6,0.5-0.9,0.7
	c-0.3,0.1-0.7,0.2-1.1,0.2c-0.3,0-0.5,0-0.7-0.1c-0.2-0.1-0.4-0.1-0.6-0.3c-0.2-0.1-0.3-0.3-0.4-0.5c-0.1-0.2-0.1-0.5-0.1-0.7
	c0-0.3,0.1-0.6,0.2-0.8c0.1-0.2,0.3-0.4,0.4-0.5c0.2-0.1,0.4-0.2,0.6-0.3c0.2-0.1,0.5-0.1,0.7-0.2c0.3-0.1,0.5-0.1,0.7-0.1
	c0.2,0,0.4-0.1,0.6-0.1c0.2-0.1,0.3-0.1,0.4-0.2c0.1-0.1,0.2-0.2,0.2-0.4c0-0.2,0-0.4-0.1-0.5c-0.1-0.1-0.2-0.2-0.3-0.3
	c-0.1-0.1-0.3-0.1-0.4-0.1c-0.1,0-0.3,0-0.4,0c-0.4,0-0.7,0.1-1,0.2c-0.3,0.1-0.4,0.4-0.4,0.8h-0.9c0-0.4,0.1-0.6,0.2-0.9
	s0.3-0.4,0.5-0.6c0.2-0.2,0.5-0.3,0.7-0.3c0.3-0.1,0.6-0.1,0.9-0.1c0.3,0,0.5,0,0.8,0.1c0.3,0,0.5,0.1,0.7,0.2
	c0.2,0.1,0.4,0.3,0.5,0.5c0.1,0.2,0.2,0.5,0.2,0.8v2.9c0,0.2,0,0.4,0,0.5c0,0.1,0.1,0.2,0.3,0.2c0.1,0,0.2,0,0.3-0.1V310.5z
	 M36.4,307.6c-0.1,0.1-0.3,0.2-0.5,0.2c-0.2,0-0.4,0.1-0.6,0.1c-0.2,0-0.4,0.1-0.6,0.1c-0.2,0-0.4,0.1-0.6,0.2
	c-0.2,0.1-0.3,0.2-0.4,0.3c-0.1,0.1-0.2,0.3-0.2,0.5c0,0.2,0,0.3,0.1,0.4c0.1,0.1,0.1,0.2,0.2,0.3c0.1,0.1,0.2,0.1,0.4,0.1
	c0.1,0,0.3,0,0.4,0c0.3,0,0.6,0,0.8-0.1c0.2-0.1,0.4-0.2,0.5-0.3c0.1-0.1,0.2-0.3,0.3-0.4c0.1-0.2,0.1-0.3,0.1-0.4V307.6z
	 M38.9,304.8v5.7h0.9V308c0-0.4,0-0.7,0.1-1c0.1-0.3,0.2-0.5,0.4-0.7c0.2-0.2,0.4-0.3,0.6-0.5c0.3-0.1,0.6-0.2,1-0.2v-1
	c-0.5,0-0.9,0.1-1.3,0.3c-0.3,0.2-0.6,0.6-0.8,1h0v-1.2H38.9z M43.3,307.7c0-0.3,0-0.5,0.1-0.8c0.1-0.3,0.2-0.5,0.3-0.7
	c0.1-0.2,0.3-0.4,0.5-0.5c0.2-0.1,0.5-0.2,0.8-0.2c0.3,0,0.6,0.1,0.8,0.2c0.2,0.1,0.4,0.3,0.5,0.5c0.1,0.2,0.3,0.4,0.3,0.7
	c0.1,0.3,0.1,0.5,0.1,0.8c0,0.3,0,0.5-0.1,0.8c-0.1,0.3-0.2,0.5-0.3,0.7c-0.1,0.2-0.3,0.4-0.5,0.5c-0.2,0.1-0.5,0.2-0.8,0.2
	c-0.3,0-0.6-0.1-0.8-0.2c-0.2-0.1-0.4-0.3-0.6-0.5c-0.1-0.2-0.2-0.4-0.3-0.7C43.4,308.2,43.3,308,43.3,307.7z M47.7,310.5v-7.9h-0.9
	v2.9h0c-0.1-0.2-0.2-0.3-0.4-0.4c-0.1-0.1-0.3-0.2-0.5-0.3c-0.2-0.1-0.3-0.1-0.5-0.2c-0.2,0-0.3,0-0.5,0c-0.4,0-0.8,0.1-1.1,0.2
	c-0.3,0.2-0.6,0.4-0.8,0.6c-0.2,0.3-0.4,0.6-0.5,0.9c-0.1,0.4-0.2,0.7-0.2,1.1c0,0.4,0.1,0.8,0.2,1.1c0.1,0.4,0.3,0.7,0.5,0.9
	c0.2,0.3,0.5,0.5,0.8,0.6c0.3,0.2,0.7,0.2,1.2,0.2c0.4,0,0.8-0.1,1.1-0.2c0.3-0.1,0.6-0.4,0.7-0.7h0v0.8H47.7z M52.8,302.6v7.9h1
	v-7.9H52.8z M55.7,304.8v5.7h0.9v-3.2c0-0.3,0-0.5,0.1-0.7c0.1-0.2,0.2-0.4,0.3-0.6c0.1-0.2,0.3-0.3,0.5-0.4
	c0.2-0.1,0.5-0.1,0.7-0.1c0.4,0,0.6,0.1,0.8,0.3c0.2,0.2,0.3,0.5,0.3,0.8v3.9h0.9v-3.7c0-0.3,0-0.6-0.1-0.8
	c-0.1-0.3-0.2-0.5-0.3-0.7c-0.2-0.2-0.4-0.3-0.6-0.4c-0.2-0.1-0.6-0.2-0.9-0.2c-0.8,0-1.5,0.3-1.8,1h0v-0.9H55.7z M62.4,305.6v4.9
	h0.9v-4.9h1.1v-0.8h-1.1V304c0-0.2,0.1-0.4,0.2-0.5c0.1-0.1,0.3-0.1,0.5-0.1c0.1,0,0.2,0,0.3,0c0.1,0,0.2,0,0.3,0.1v-0.8
	c-0.1,0-0.2-0.1-0.3-0.1c-0.1,0-0.2,0-0.3,0c-0.5,0-0.9,0.1-1.2,0.4c-0.3,0.2-0.4,0.6-0.4,1v0.8h-1v0.8H62.4z M66.1,307.7
	c0-0.3,0-0.6,0.1-0.9c0.1-0.3,0.2-0.5,0.4-0.7c0.2-0.2,0.3-0.3,0.6-0.4c0.2-0.1,0.5-0.1,0.7-0.1c0.2,0,0.5,0,0.7,0.1
	c0.2,0.1,0.4,0.2,0.6,0.4c0.2,0.2,0.3,0.4,0.4,0.7c0.1,0.3,0.1,0.6,0.1,0.9c0,0.3,0,0.7-0.1,0.9c-0.1,0.3-0.2,0.5-0.4,0.7
	c-0.2,0.2-0.4,0.3-0.6,0.4c-0.2,0.1-0.4,0.1-0.7,0.1c-0.2,0-0.5,0-0.7-0.1c-0.2-0.1-0.4-0.2-0.6-0.4c-0.2-0.2-0.3-0.4-0.4-0.7
	C66.2,308.3,66.1,308,66.1,307.7z M65.1,307.7c0,0.4,0.1,0.8,0.2,1.2c0.1,0.4,0.3,0.7,0.5,0.9c0.2,0.3,0.5,0.5,0.9,0.6
	c0.3,0.1,0.7,0.2,1.2,0.2c0.5,0,0.9-0.1,1.2-0.2c0.3-0.2,0.6-0.4,0.9-0.6c0.2-0.3,0.4-0.6,0.5-0.9c0.1-0.4,0.2-0.7,0.2-1.2
	s-0.1-0.8-0.2-1.2c-0.1-0.4-0.3-0.7-0.5-0.9c-0.2-0.3-0.5-0.5-0.9-0.6c-0.3-0.2-0.7-0.2-1.2-0.2c-0.4,0-0.8,0.1-1.2,0.2
	c-0.3,0.2-0.6,0.4-0.9,0.6c-0.2,0.3-0.4,0.6-0.5,0.9C65.2,306.9,65.1,307.2,65.1,307.7z M71.9,304.8v5.7h0.9V308c0-0.4,0-0.7,0.1-1
	c0.1-0.3,0.2-0.5,0.4-0.7c0.2-0.2,0.4-0.3,0.6-0.5c0.3-0.1,0.6-0.2,1-0.2v-1c-0.5,0-0.9,0.1-1.3,0.3c-0.3,0.2-0.6,0.6-0.8,1h0v-1.2
	H71.9z M75.8,304.8v5.7h0.9V307c0-0.1,0-0.2,0.1-0.4c0.1-0.2,0.1-0.3,0.3-0.5c0.1-0.2,0.3-0.3,0.5-0.4c0.2-0.1,0.4-0.2,0.7-0.2
	c0.2,0,0.4,0,0.5,0.1c0.1,0.1,0.2,0.1,0.3,0.3c0.1,0.1,0.1,0.2,0.2,0.4c0,0.2,0.1,0.3,0.1,0.5v3.7h0.9V307c0-0.4,0.1-0.8,0.4-1.1
	c0.3-0.3,0.6-0.4,1.1-0.4c0.2,0,0.4,0,0.5,0.1c0.1,0.1,0.3,0.2,0.3,0.3c0.1,0.1,0.1,0.2,0.2,0.4c0,0.2,0,0.3,0,0.5v3.7h0.9v-4.2
	c0-0.3,0-0.5-0.1-0.7c-0.1-0.2-0.2-0.4-0.4-0.5c-0.2-0.1-0.4-0.2-0.6-0.3c-0.2-0.1-0.5-0.1-0.8-0.1c-0.4,0-0.7,0.1-1,0.3
	c-0.3,0.2-0.6,0.4-0.7,0.7c-0.1-0.4-0.3-0.6-0.6-0.7c-0.3-0.1-0.6-0.2-1-0.2c-0.8,0-1.4,0.3-1.8,1h0v-0.8H75.8z M90.4,310.5
	c-0.2,0.1-0.4,0.1-0.7,0.1c-0.2,0-0.4-0.1-0.6-0.2c-0.1-0.1-0.2-0.4-0.2-0.7c-0.3,0.3-0.6,0.5-0.9,0.7c-0.3,0.1-0.7,0.2-1.1,0.2
	c-0.3,0-0.5,0-0.7-0.1c-0.2-0.1-0.4-0.1-0.6-0.3c-0.2-0.1-0.3-0.3-0.4-0.5c-0.1-0.2-0.1-0.5-0.1-0.7c0-0.3,0.1-0.6,0.2-0.8
	c0.1-0.2,0.3-0.4,0.4-0.5c0.2-0.1,0.4-0.2,0.6-0.3c0.2-0.1,0.5-0.1,0.7-0.2c0.3-0.1,0.5-0.1,0.7-0.1c0.2,0,0.4-0.1,0.6-0.1
	c0.2-0.1,0.3-0.1,0.4-0.2c0.1-0.1,0.2-0.2,0.2-0.4c0-0.2,0-0.4-0.1-0.5c-0.1-0.1-0.2-0.2-0.3-0.3c-0.1-0.1-0.3-0.1-0.4-0.1
	c-0.1,0-0.3,0-0.4,0c-0.4,0-0.7,0.1-1,0.2c-0.3,0.1-0.4,0.4-0.4,0.8h-0.9c0-0.4,0.1-0.6,0.2-0.9c0.1-0.2,0.3-0.4,0.5-0.6
	c0.2-0.2,0.5-0.3,0.7-0.3c0.3-0.1,0.6-0.1,0.9-0.1c0.3,0,0.5,0,0.8,0.1c0.3,0,0.5,0.1,0.7,0.2c0.2,0.1,0.4,0.3,0.5,0.5
	c0.1,0.2,0.2,0.5,0.2,0.8v2.9c0,0.2,0,0.4,0,0.5c0,0.1,0.1,0.2,0.3,0.2c0.1,0,0.2,0,0.3-0.1V310.5z M88.9,307.6
	c-0.1,0.1-0.3,0.2-0.5,0.2c-0.2,0-0.4,0.1-0.6,0.1c-0.2,0-0.4,0.1-0.6,0.1c-0.2,0-0.4,0.1-0.6,0.2c-0.2,0.1-0.3,0.2-0.4,0.3
	c-0.1,0.1-0.2,0.3-0.2,0.5c0,0.2,0,0.3,0.1,0.4c0.1,0.1,0.1,0.2,0.2,0.3c0.1,0.1,0.2,0.1,0.4,0.1c0.1,0,0.3,0,0.4,0
	c0.3,0,0.6,0,0.8-0.1c0.2-0.1,0.4-0.2,0.5-0.3c0.1-0.1,0.2-0.3,0.3-0.4c0.1-0.2,0.1-0.3,0.1-0.4V307.6z M92.8,304.8v-1.7h-0.9v1.7
	h-1v0.8h1v3.6c0,0.3,0,0.5,0.1,0.6c0.1,0.2,0.1,0.3,0.2,0.4c0.1,0.1,0.2,0.2,0.4,0.2c0.2,0,0.4,0,0.6,0h0.7v-0.8h-0.4
	c-0.1,0-0.3,0-0.4,0c-0.1,0-0.2,0-0.2-0.1c-0.1,0-0.1-0.1-0.1-0.2c0-0.1,0-0.2,0-0.3v-3.5h1.1v-0.8H92.8z M96.2,303.8v-1.1h-0.9v1.1
	H96.2z M95.2,304.8v5.7h0.9v-5.7H95.2z M98.5,307.7c0-0.3,0-0.6,0.1-0.9c0.1-0.3,0.2-0.5,0.4-0.7c0.2-0.2,0.3-0.3,0.6-0.4
	c0.2-0.1,0.5-0.1,0.7-0.1c0.2,0,0.5,0,0.7,0.1c0.2,0.1,0.4,0.2,0.6,0.4c0.2,0.2,0.3,0.4,0.4,0.7c0.1,0.3,0.1,0.6,0.1,0.9
	c0,0.3,0,0.7-0.1,0.9c-0.1,0.3-0.2,0.5-0.4,0.7c-0.2,0.2-0.4,0.3-0.6,0.4c-0.2,0.1-0.4,0.1-0.7,0.1c-0.2,0-0.5,0-0.7-0.1
	c-0.2-0.1-0.4-0.2-0.6-0.4c-0.2-0.2-0.3-0.4-0.4-0.7C98.5,308.3,98.5,308,98.5,307.7z M97.5,307.7c0,0.4,0.1,0.8,0.2,1.2
	c0.1,0.4,0.3,0.7,0.5,0.9c0.2,0.3,0.5,0.5,0.9,0.6c0.3,0.1,0.7,0.2,1.2,0.2c0.5,0,0.9-0.1,1.2-0.2c0.3-0.2,0.6-0.4,0.9-0.6
	c0.2-0.3,0.4-0.6,0.5-0.9c0.1-0.4,0.2-0.7,0.2-1.2s-0.1-0.8-0.2-1.2c-0.1-0.4-0.3-0.7-0.5-0.9c-0.2-0.3-0.5-0.5-0.9-0.6
	c-0.3-0.2-0.7-0.2-1.2-0.2c-0.4,0-0.8,0.1-1.2,0.2s-0.6,0.4-0.9,0.6c-0.2,0.3-0.4,0.6-0.5,0.9C97.6,306.9,97.5,307.2,97.5,307.7z
	 M104.3,304.8v5.7h0.9v-3.2c0-0.3,0-0.5,0.1-0.7c0.1-0.2,0.2-0.4,0.3-0.6c0.1-0.2,0.3-0.3,0.5-0.4c0.2-0.1,0.5-0.1,0.7-0.1
	c0.4,0,0.6,0.1,0.8,0.3c0.2,0.2,0.3,0.5,0.3,0.8v3.9h0.9v-3.7c0-0.3,0-0.6-0.1-0.8c-0.1-0.3-0.2-0.5-0.3-0.7
	c-0.2-0.2-0.4-0.3-0.6-0.4c-0.2-0.1-0.6-0.2-0.9-0.2c-0.8,0-1.5,0.3-1.8,1h0v-0.9H104.3z"/>
<path class="st37" d="M32.9,327.6v7.9h1v-6.3h0l4.1,6.3h1.1v-7.9h-1v6.4h0l-4.1-6.4H32.9z M45.6,335.5v-5.7h-0.9v3.2
	c0,0.3,0,0.5-0.1,0.7c-0.1,0.2-0.2,0.4-0.3,0.6c-0.1,0.2-0.3,0.3-0.5,0.4c-0.2,0.1-0.5,0.1-0.7,0.1c-0.4,0-0.6-0.1-0.8-0.3
	c-0.2-0.2-0.3-0.5-0.3-0.8v-3.9h-0.9v3.7c0,0.3,0,0.6,0.1,0.8c0.1,0.2,0.2,0.5,0.3,0.6c0.2,0.2,0.4,0.3,0.6,0.4
	c0.2,0.1,0.6,0.1,0.9,0.1c0.4,0,0.8-0.1,1.1-0.2c0.3-0.2,0.6-0.4,0.8-0.8h0v0.9H45.6z M47.2,329.8v5.7h0.9V332c0-0.1,0-0.2,0.1-0.4
	c0.1-0.2,0.1-0.3,0.3-0.5c0.1-0.2,0.3-0.3,0.5-0.4c0.2-0.1,0.4-0.2,0.7-0.2c0.2,0,0.4,0,0.5,0.1c0.1,0.1,0.2,0.1,0.3,0.3
	c0.1,0.1,0.1,0.2,0.2,0.4c0,0.2,0.1,0.3,0.1,0.5v3.7h0.9V332c0-0.4,0.1-0.8,0.4-1.1c0.3-0.3,0.6-0.4,1.1-0.4c0.2,0,0.4,0,0.5,0.1
	c0.1,0.1,0.3,0.2,0.3,0.3c0.1,0.1,0.1,0.2,0.2,0.4c0,0.2,0,0.3,0,0.5v3.7h0.9v-4.2c0-0.3,0-0.5-0.1-0.7c-0.1-0.2-0.2-0.4-0.4-0.5
	c-0.2-0.1-0.4-0.2-0.6-0.3c-0.2-0.1-0.5-0.1-0.8-0.1c-0.4,0-0.7,0.1-1,0.3c-0.3,0.2-0.6,0.4-0.7,0.7c-0.1-0.4-0.3-0.6-0.6-0.7
	c-0.3-0.1-0.6-0.2-1-0.2c-0.8,0-1.4,0.3-1.8,1h0v-0.8H47.2z M56.8,327.6v7.9h0.9v-0.8h0c0.1,0.2,0.2,0.3,0.4,0.4
	c0.2,0.1,0.3,0.2,0.5,0.3c0.2,0.1,0.3,0.1,0.5,0.1c0.2,0,0.3,0,0.5,0c0.4,0,0.8-0.1,1.1-0.2c0.3-0.2,0.6-0.4,0.8-0.6
	c0.2-0.3,0.4-0.6,0.5-0.9c0.1-0.4,0.2-0.7,0.2-1.1c0-0.4-0.1-0.8-0.2-1.1c-0.1-0.4-0.3-0.7-0.5-0.9c-0.2-0.3-0.5-0.5-0.8-0.7
	c-0.3-0.2-0.7-0.2-1.1-0.2c-0.4,0-0.8,0.1-1.1,0.2c-0.3,0.1-0.6,0.4-0.7,0.7h0v-2.9H56.8z M61.2,332.6c0,0.3,0,0.5-0.1,0.8
	c-0.1,0.3-0.2,0.5-0.3,0.7c-0.1,0.2-0.3,0.4-0.5,0.5c-0.2,0.1-0.5,0.2-0.8,0.2c-0.3,0-0.6-0.1-0.8-0.2c-0.2-0.1-0.4-0.3-0.6-0.5
	c-0.1-0.2-0.2-0.4-0.3-0.7c-0.1-0.3-0.1-0.5-0.1-0.8c0-0.3,0-0.5,0.1-0.8c0.1-0.3,0.2-0.5,0.3-0.7c0.1-0.2,0.3-0.4,0.5-0.5
	c0.2-0.1,0.5-0.2,0.8-0.2c0.3,0,0.6,0.1,0.8,0.2c0.2,0.1,0.4,0.3,0.5,0.5c0.1,0.2,0.3,0.4,0.3,0.7C61.2,332.1,61.2,332.3,61.2,332.6
	z M67.4,332.1h-3.3c0-0.2,0.1-0.4,0.1-0.6c0.1-0.2,0.2-0.4,0.3-0.5c0.1-0.1,0.3-0.3,0.5-0.3c0.2-0.1,0.4-0.1,0.7-0.1
	c0.2,0,0.4,0,0.6,0.1c0.2,0.1,0.4,0.2,0.5,0.3c0.1,0.1,0.3,0.3,0.3,0.5C67.4,331.7,67.4,331.9,67.4,332.1z M68.3,333.7h-0.9
	c-0.1,0.4-0.2,0.7-0.5,0.8c-0.2,0.2-0.6,0.3-1,0.3c-0.3,0-0.6-0.1-0.8-0.2c-0.2-0.1-0.4-0.2-0.6-0.4c-0.1-0.2-0.3-0.4-0.3-0.6
	c-0.1-0.2-0.1-0.5-0.1-0.7h4.3c0-0.3,0-0.7-0.1-1.1c-0.1-0.4-0.2-0.7-0.4-1.1c-0.2-0.3-0.5-0.6-0.8-0.8c-0.3-0.2-0.7-0.3-1.3-0.3
	c-0.4,0-0.7,0.1-1.1,0.2c-0.3,0.1-0.6,0.4-0.8,0.6c-0.2,0.3-0.4,0.6-0.5,0.9c-0.1,0.4-0.2,0.8-0.2,1.2c0,0.4,0.1,0.8,0.2,1.2
	c0.1,0.4,0.3,0.7,0.5,0.9c0.2,0.3,0.5,0.5,0.8,0.6c0.3,0.1,0.7,0.2,1.2,0.2c0.6,0,1.2-0.2,1.6-0.5C67.9,334.8,68.2,334.3,68.3,333.7
	z M69.6,329.8v5.7h0.9V333c0-0.4,0-0.7,0.1-1c0.1-0.3,0.2-0.5,0.4-0.7s0.4-0.3,0.6-0.5c0.3-0.1,0.6-0.2,1-0.2v-1
	c-0.5,0-0.9,0.1-1.3,0.3c-0.3,0.2-0.6,0.6-0.8,1h0v-1.2H69.6z"/>
<path class="st37" d="M32.8,353.4v7.1h0.9v-5.9h0l2.2,5.9h0.8l2.2-5.9h0v5.9h0.9v-7.1h-1.3l-2.3,6l-2.2-6H32.8z M41.7,353.4v7.1h0.9
	v-5.9h0l2.2,5.9h0.8l2.2-5.9h0v5.9h0.9v-7.1h-1.3l-2.3,6l-2.2-6H41.7z M55.6,353.2l-3,7.5h0.7l3-7.5H55.6z M63.1,357.6l2.7-4.2h-1.1
	l-2.1,3.4l-2.1-3.4h-1.1l2.8,4.2v2.9h0.9V357.6z M69.8,357.6l2.7-4.2h-1.1l-2.1,3.4l-2.1-3.4H66l2.8,4.2v2.9h0.9V357.6z"/>
<path class="st37" d="M147.4,355h1c-0.1-0.4-0.2-0.8-0.4-1.1c-0.2-0.3-0.4-0.6-0.7-0.8c-0.3-0.2-0.6-0.4-1-0.5
	c-0.4-0.1-0.8-0.2-1.2-0.2c-0.6,0-1.1,0.1-1.6,0.3c-0.5,0.2-0.8,0.5-1.2,0.9c-0.3,0.4-0.5,0.8-0.7,1.3c-0.2,0.5-0.2,1-0.2,1.6
	c0,0.6,0.1,1.1,0.2,1.6c0.2,0.5,0.4,0.9,0.7,1.3c0.3,0.4,0.7,0.7,1.1,0.9c0.5,0.2,1,0.3,1.6,0.3c1,0,1.8-0.3,2.4-0.8
	c0.6-0.5,0.9-1.3,1-2.3h-1c0,0.3-0.1,0.6-0.2,0.9c-0.1,0.3-0.3,0.5-0.5,0.7c-0.2,0.2-0.4,0.4-0.7,0.5c-0.3,0.1-0.6,0.2-0.9,0.2
	c-0.5,0-0.9-0.1-1.2-0.3c-0.3-0.2-0.6-0.4-0.8-0.7c-0.2-0.3-0.4-0.6-0.5-1c-0.1-0.4-0.2-0.8-0.2-1.3c0-0.4,0.1-0.8,0.2-1.2
	c0.1-0.4,0.3-0.7,0.5-1c0.2-0.3,0.5-0.5,0.8-0.7c0.3-0.2,0.7-0.3,1.2-0.3c0.6,0,1,0.1,1.4,0.4C147,354,147.3,354.5,147.4,355z
	 M153.1,360.5l2.8-7.9h-1.1l-2.3,6.8h0l-2.2-6.8h-1.1l2.8,7.9H153.1z M162.5,355h1c-0.1-0.4-0.2-0.8-0.4-1.1
	c-0.2-0.3-0.4-0.6-0.7-0.8c-0.3-0.2-0.6-0.4-1-0.5c-0.4-0.1-0.8-0.2-1.2-0.2c-0.6,0-1.1,0.1-1.6,0.3c-0.5,0.2-0.8,0.5-1.2,0.9
	c-0.3,0.4-0.5,0.8-0.7,1.3c-0.2,0.5-0.2,1-0.2,1.6c0,0.6,0.1,1.1,0.2,1.6c0.2,0.5,0.4,0.9,0.7,1.3c0.3,0.4,0.7,0.7,1.1,0.9
	c0.5,0.2,1,0.3,1.6,0.3c1,0,1.8-0.3,2.4-0.8c0.6-0.5,0.9-1.3,1-2.3h-1c0,0.3-0.1,0.6-0.2,0.9c-0.1,0.3-0.3,0.5-0.5,0.7
	c-0.2,0.2-0.4,0.4-0.7,0.5c-0.3,0.1-0.6,0.2-0.9,0.2c-0.5,0-0.9-0.1-1.2-0.3c-0.3-0.2-0.6-0.4-0.8-0.7c-0.2-0.3-0.4-0.6-0.5-1
	c-0.1-0.4-0.2-0.8-0.2-1.3c0-0.4,0.1-0.8,0.2-1.2c0.1-0.4,0.3-0.7,0.5-1c0.2-0.3,0.5-0.5,0.8-0.7c0.3-0.2,0.7-0.3,1.2-0.3
	c0.6,0,1,0.1,1.4,0.4C162.1,354,162.4,354.5,162.5,355z"/>
<path class="st36" d="M30.4,390h1c-0.1-0.4-0.2-0.8-0.4-1.1c-0.2-0.3-0.4-0.6-0.7-0.8c-0.3-0.2-0.6-0.4-1-0.5
	c-0.4-0.1-0.8-0.2-1.2-0.2c-0.6,0-1.1,0.1-1.6,0.3c-0.5,0.2-0.9,0.5-1.2,0.9c-0.3,0.4-0.5,0.8-0.7,1.3c-0.2,0.5-0.2,1-0.2,1.6
	c0,0.6,0.1,1.1,0.2,1.6c0.2,0.5,0.4,0.9,0.7,1.3c0.3,0.4,0.7,0.7,1.1,0.9c0.5,0.2,1,0.3,1.6,0.3c1,0,1.8-0.3,2.4-0.8
	c0.6-0.5,0.9-1.3,1-2.3h-1c0,0.3-0.1,0.6-0.2,0.9c-0.1,0.3-0.3,0.5-0.5,0.7c-0.2,0.2-0.4,0.4-0.7,0.5c-0.3,0.1-0.6,0.2-0.9,0.2
	c-0.5,0-0.9-0.1-1.2-0.3c-0.3-0.2-0.6-0.4-0.8-0.7c-0.2-0.3-0.4-0.6-0.5-1c-0.1-0.4-0.2-0.8-0.2-1.3c0-0.4,0.1-0.8,0.2-1.2
	c0.1-0.4,0.3-0.7,0.5-1c0.2-0.3,0.5-0.5,0.8-0.7c0.3-0.2,0.7-0.3,1.2-0.3c0.5,0,1,0.1,1.4,0.4C30,389,30.3,389.5,30.4,390z
	 M33.5,392.7c0-0.3,0-0.6,0.1-0.9c0.1-0.3,0.2-0.5,0.4-0.7c0.2-0.2,0.3-0.3,0.6-0.4c0.2-0.1,0.5-0.1,0.7-0.1s0.5,0,0.7,0.1
	c0.2,0.1,0.4,0.2,0.6,0.4c0.2,0.2,0.3,0.4,0.4,0.7c0.1,0.3,0.1,0.6,0.1,0.9c0,0.3,0,0.7-0.1,0.9c-0.1,0.3-0.2,0.5-0.4,0.7
	c-0.2,0.2-0.4,0.3-0.6,0.4c-0.2,0.1-0.4,0.1-0.7,0.1s-0.5,0-0.7-0.1c-0.2-0.1-0.4-0.2-0.6-0.4c-0.2-0.2-0.3-0.4-0.4-0.7
	C33.6,393.3,33.5,393,33.5,392.7z M32.6,392.7c0,0.4,0.1,0.8,0.2,1.2c0.1,0.4,0.3,0.7,0.5,0.9c0.2,0.3,0.5,0.5,0.9,0.6
	c0.3,0.1,0.7,0.2,1.2,0.2c0.5,0,0.9-0.1,1.2-0.2c0.3-0.2,0.6-0.4,0.9-0.6c0.2-0.3,0.4-0.6,0.5-0.9c0.1-0.4,0.2-0.7,0.2-1.2
	s-0.1-0.8-0.2-1.2c-0.1-0.4-0.3-0.7-0.5-0.9c-0.2-0.3-0.5-0.5-0.9-0.6c-0.3-0.2-0.7-0.2-1.2-0.2c-0.4,0-0.8,0.1-1.2,0.2
	c-0.3,0.2-0.6,0.4-0.9,0.6c-0.2,0.3-0.4,0.6-0.5,0.9C32.6,391.9,32.6,392.2,32.6,392.7z M44.1,395.5v-5.7h-0.9v3.2
	c0,0.3,0,0.5-0.1,0.7c-0.1,0.2-0.2,0.4-0.3,0.6c-0.1,0.2-0.3,0.3-0.5,0.4c-0.2,0.1-0.5,0.1-0.7,0.1c-0.4,0-0.6-0.1-0.8-0.3
	c-0.2-0.2-0.3-0.5-0.3-0.8v-3.9h-0.9v3.7c0,0.3,0,0.6,0.1,0.8c0.1,0.2,0.2,0.5,0.3,0.6c0.2,0.2,0.4,0.3,0.6,0.4
	c0.2,0.1,0.6,0.1,0.9,0.1c0.4,0,0.8-0.1,1.1-0.2c0.3-0.2,0.6-0.4,0.8-0.8h0v0.9H44.1z M45.7,389.8v5.7h0.9v-3.2c0-0.3,0-0.5,0.1-0.7
	c0.1-0.2,0.2-0.4,0.3-0.6c0.1-0.2,0.3-0.3,0.5-0.4c0.2-0.1,0.5-0.1,0.7-0.1c0.4,0,0.6,0.1,0.8,0.3c0.2,0.2,0.3,0.5,0.3,0.8v3.9h0.9
	v-3.7c0-0.3,0-0.6-0.1-0.8c-0.1-0.3-0.2-0.5-0.3-0.7c-0.2-0.2-0.4-0.3-0.6-0.4c-0.2-0.1-0.6-0.2-0.9-0.2c-0.8,0-1.5,0.3-1.8,1h0
	v-0.9H45.7z M53.3,389.8v-1.7h-0.9v1.7h-1v0.8h1v3.6c0,0.3,0,0.5,0.1,0.6c0.1,0.2,0.1,0.3,0.2,0.4c0.1,0.1,0.2,0.2,0.4,0.2
	c0.2,0,0.4,0,0.6,0h0.7v-0.8H54c-0.1,0-0.3,0-0.4,0c-0.1,0-0.2,0-0.2-0.1c-0.1,0-0.1-0.1-0.1-0.2c0-0.1,0-0.2,0-0.3v-3.5h1.1v-0.8
	H53.3z M55.6,389.8v5.7h0.9V393c0-0.4,0-0.7,0.1-1c0.1-0.3,0.2-0.5,0.4-0.7s0.4-0.3,0.6-0.5c0.3-0.1,0.6-0.2,1-0.2v-1
	c-0.5,0-0.9,0.1-1.3,0.3c-0.3,0.2-0.6,0.6-0.8,1h0v-1.2H55.6z M61.8,396.3c-0.1,0.3-0.2,0.5-0.3,0.7c-0.1,0.2-0.2,0.3-0.4,0.5
	c-0.1,0.1-0.3,0.2-0.4,0.3c-0.2,0.1-0.3,0.1-0.5,0.1c-0.1,0-0.2,0-0.3,0c-0.1,0-0.2,0-0.3-0.1v-0.9c0.1,0,0.2,0.1,0.3,0.1
	c0.1,0,0.2,0,0.3,0c0.2,0,0.3,0,0.5-0.1c0.1-0.1,0.2-0.2,0.3-0.4l0.4-1l-2.3-5.7H60l1.7,4.7h0l1.6-4.7h1L61.8,396.3z M69.2,392.7
	c0-0.3,0-0.6,0.1-0.9c0.1-0.3,0.2-0.5,0.4-0.7c0.2-0.2,0.3-0.3,0.6-0.4c0.2-0.1,0.5-0.1,0.7-0.1c0.2,0,0.5,0,0.7,0.1
	c0.2,0.1,0.4,0.2,0.6,0.4c0.2,0.2,0.3,0.4,0.4,0.7c0.1,0.3,0.1,0.6,0.1,0.9c0,0.3,0,0.7-0.1,0.9c-0.1,0.3-0.2,0.5-0.4,0.7
	c-0.2,0.2-0.4,0.3-0.6,0.4c-0.2,0.1-0.4,0.1-0.7,0.1c-0.2,0-0.5,0-0.7-0.1c-0.2-0.1-0.4-0.2-0.6-0.4c-0.2-0.2-0.3-0.4-0.4-0.7
	C69.2,393.3,69.2,393,69.2,392.7z M68.2,392.7c0,0.4,0.1,0.8,0.2,1.2c0.1,0.4,0.3,0.7,0.5,0.9c0.2,0.3,0.5,0.5,0.9,0.6
	c0.3,0.1,0.7,0.2,1.2,0.2c0.5,0,0.9-0.1,1.2-0.2c0.3-0.2,0.6-0.4,0.9-0.6c0.2-0.3,0.4-0.6,0.5-0.9c0.1-0.4,0.2-0.7,0.2-1.2
	s-0.1-0.8-0.2-1.2c-0.1-0.4-0.3-0.7-0.5-0.9c-0.2-0.3-0.5-0.5-0.9-0.6c-0.3-0.2-0.7-0.2-1.2-0.2c-0.4,0-0.8,0.1-1.2,0.2
	c-0.3,0.2-0.6,0.4-0.9,0.6c-0.2,0.3-0.4,0.6-0.5,0.9C68.3,391.9,68.2,392.2,68.2,392.7z M75,389.8v5.7h0.9V393c0-0.4,0-0.7,0.1-1
	c0.1-0.3,0.2-0.5,0.4-0.7s0.4-0.3,0.6-0.5c0.3-0.1,0.6-0.2,1-0.2v-1c-0.5,0-0.9,0.1-1.3,0.3c-0.3,0.2-0.6,0.6-0.8,1h0v-1.2H75z
	 M82.1,389.8v5.7H83V393c0-0.4,0-0.7,0.1-1c0.1-0.3,0.2-0.5,0.4-0.7c0.2-0.2,0.4-0.3,0.6-0.5c0.3-0.1,0.6-0.2,1-0.2v-1
	c-0.5,0-0.9,0.1-1.3,0.3s-0.6,0.6-0.8,1h0v-1.2H82.1z M89.8,392.1h-3.3c0-0.2,0.1-0.4,0.1-0.6c0.1-0.2,0.2-0.4,0.3-0.5
	c0.1-0.1,0.3-0.3,0.5-0.3c0.2-0.1,0.4-0.1,0.7-0.1c0.2,0,0.4,0,0.6,0.1c0.2,0.1,0.4,0.2,0.5,0.3c0.1,0.1,0.3,0.3,0.3,0.5
	C89.7,391.7,89.7,391.9,89.8,392.1z M90.7,393.7h-0.9c-0.1,0.4-0.2,0.7-0.5,0.8c-0.2,0.2-0.6,0.3-1,0.3c-0.3,0-0.6-0.1-0.8-0.2
	c-0.2-0.1-0.4-0.2-0.6-0.4c-0.1-0.2-0.3-0.4-0.3-0.6c-0.1-0.2-0.1-0.5-0.1-0.7h4.3c0-0.3,0-0.7-0.1-1.1c-0.1-0.4-0.2-0.7-0.4-1.1
	c-0.2-0.3-0.5-0.6-0.8-0.8c-0.3-0.2-0.7-0.3-1.3-0.3c-0.4,0-0.7,0.1-1.1,0.2c-0.3,0.1-0.6,0.4-0.8,0.6c-0.2,0.3-0.4,0.6-0.6,0.9
	c-0.1,0.4-0.2,0.8-0.2,1.2c0,0.4,0.1,0.8,0.2,1.2c0.1,0.4,0.3,0.7,0.5,0.9c0.2,0.3,0.5,0.5,0.8,0.6c0.3,0.1,0.7,0.2,1.2,0.2
	c0.6,0,1.2-0.2,1.6-0.5C90.3,394.8,90.5,394.3,90.7,393.7z M96.8,395v-5.2h-0.9v0.8h0c-0.2-0.3-0.4-0.5-0.7-0.7
	c-0.3-0.2-0.6-0.2-1-0.2c-0.5,0-0.9,0.1-1.2,0.3c-0.3,0.2-0.6,0.4-0.8,0.7c-0.2,0.3-0.4,0.6-0.4,1c-0.1,0.4-0.1,0.7-0.1,1
	c0,0.4,0.1,0.8,0.2,1.1c0.1,0.3,0.3,0.6,0.5,0.9c0.2,0.3,0.5,0.5,0.8,0.6c0.3,0.2,0.7,0.2,1.1,0.2c0.4,0,0.7-0.1,1-0.2
	c0.3-0.2,0.6-0.4,0.7-0.8h0v0.4c0,0.3,0,0.6-0.1,0.9c-0.1,0.3-0.2,0.5-0.3,0.7c-0.1,0.2-0.3,0.3-0.5,0.4c-0.2,0.1-0.5,0.2-0.8,0.2
	c-0.2,0-0.3,0-0.5-0.1c-0.2,0-0.3-0.1-0.5-0.2c-0.1-0.1-0.3-0.2-0.4-0.3c-0.1-0.1-0.1-0.3-0.2-0.4h-0.9c0,0.3,0.1,0.6,0.2,0.8
	c0.1,0.2,0.3,0.4,0.6,0.5c0.2,0.1,0.5,0.2,0.7,0.3c0.3,0.1,0.5,0.1,0.8,0.1c0.9,0,1.6-0.2,2-0.7C96.6,396.6,96.8,395.9,96.8,395z
	 M94.2,394.7c-0.3,0-0.6-0.1-0.8-0.2c-0.2-0.1-0.4-0.3-0.5-0.5c-0.1-0.2-0.2-0.4-0.3-0.7c-0.1-0.3-0.1-0.5-0.1-0.8
	c0-0.3,0-0.5,0.1-0.8c0.1-0.2,0.2-0.5,0.3-0.7c0.1-0.2,0.3-0.3,0.5-0.5c0.2-0.1,0.5-0.2,0.8-0.2c0.3,0,0.5,0.1,0.7,0.2
	c0.2,0.1,0.4,0.3,0.5,0.5c0.1,0.2,0.2,0.4,0.3,0.6c0.1,0.2,0.1,0.5,0.1,0.7c0,0.3,0,0.5-0.1,0.8c-0.1,0.3-0.2,0.5-0.3,0.7
	c-0.1,0.2-0.3,0.4-0.5,0.5C94.8,394.7,94.5,394.7,94.2,394.7z M99.4,388.8v-1.1h-0.9v1.1H99.4z M98.5,389.8v5.7h0.9v-5.7H98.5z
	 M101.8,392.7c0-0.3,0-0.6,0.1-0.9c0.1-0.3,0.2-0.5,0.4-0.7c0.2-0.2,0.3-0.3,0.6-0.4c0.2-0.1,0.5-0.1,0.7-0.1c0.2,0,0.5,0,0.7,0.1
	c0.2,0.1,0.4,0.2,0.6,0.4c0.2,0.2,0.3,0.4,0.4,0.7c0.1,0.3,0.1,0.6,0.1,0.9c0,0.3,0,0.7-0.1,0.9c-0.1,0.3-0.2,0.5-0.4,0.7
	c-0.2,0.2-0.4,0.3-0.6,0.4c-0.2,0.1-0.4,0.1-0.7,0.1c-0.2,0-0.5,0-0.7-0.1c-0.2-0.1-0.4-0.2-0.6-0.4c-0.2-0.2-0.3-0.4-0.4-0.7
	C101.8,393.3,101.8,393,101.8,392.7z M100.8,392.7c0,0.4,0.1,0.8,0.2,1.2c0.1,0.4,0.3,0.7,0.5,0.9c0.2,0.3,0.5,0.5,0.9,0.6
	c0.3,0.1,0.7,0.2,1.2,0.2c0.5,0,0.8-0.1,1.2-0.2c0.3-0.2,0.6-0.4,0.9-0.6c0.2-0.3,0.4-0.6,0.5-0.9c0.1-0.4,0.2-0.7,0.2-1.2
	s-0.1-0.8-0.2-1.2c-0.1-0.4-0.3-0.7-0.5-0.9c-0.2-0.3-0.5-0.5-0.9-0.6c-0.3-0.2-0.7-0.2-1.2-0.2c-0.4,0-0.8,0.1-1.2,0.2
	c-0.3,0.2-0.6,0.4-0.9,0.6c-0.2,0.3-0.4,0.6-0.5,0.9C100.8,391.9,100.8,392.2,100.8,392.7z M107.6,389.8v5.7h0.9v-3.2
	c0-0.3,0-0.5,0.1-0.7c0.1-0.2,0.2-0.4,0.3-0.6c0.1-0.2,0.3-0.3,0.5-0.4c0.2-0.1,0.5-0.1,0.7-0.1c0.4,0,0.6,0.1,0.8,0.3
	c0.2,0.2,0.3,0.5,0.3,0.8v3.9h0.9v-3.7c0-0.3,0-0.6-0.1-0.8c-0.1-0.3-0.2-0.5-0.3-0.7c-0.2-0.2-0.4-0.3-0.6-0.4
	c-0.2-0.1-0.6-0.2-0.9-0.2c-0.8,0-1.5,0.3-1.8,1h0v-0.9H107.6z"/>
<path class="st37" d="M39.2,417.7v-5h-1v5c0,0.7-0.2,1.2-0.5,1.6c-0.3,0.4-0.9,0.5-1.5,0.5c-0.7,0-1.2-0.2-1.6-0.5
	c-0.4-0.4-0.6-0.9-0.6-1.6v-5h-1v5c0,1,0.3,1.8,0.8,2.3c0.6,0.5,1.4,0.7,2.4,0.7c1,0,1.8-0.2,2.3-0.7
	C38.9,419.4,39.2,418.7,39.2,417.7z M40.9,414.8v5.7h0.9v-3.2c0-0.3,0-0.5,0.1-0.7c0.1-0.2,0.2-0.4,0.3-0.6c0.1-0.2,0.3-0.3,0.5-0.4
	c0.2-0.1,0.5-0.1,0.7-0.1c0.4,0,0.6,0.1,0.8,0.3c0.2,0.2,0.3,0.5,0.3,0.8v3.9h0.9v-3.7c0-0.3,0-0.6-0.1-0.8
	c-0.1-0.3-0.2-0.5-0.3-0.7c-0.2-0.2-0.4-0.3-0.6-0.4c-0.2-0.1-0.6-0.2-0.9-0.2c-0.8,0-1.5,0.3-1.8,1h0v-0.9H40.9z M48.2,413.8v-1.1
	h-0.9v1.1H48.2z M47.2,414.8v5.7h0.9v-5.7H47.2z M51.1,414.8v-1.7h-0.9v1.7h-1v0.8h1v3.6c0,0.3,0,0.5,0.1,0.6
	c0.1,0.2,0.1,0.3,0.2,0.4c0.1,0.1,0.2,0.2,0.4,0.2c0.2,0,0.4,0,0.6,0h0.7v-0.8h-0.4c-0.1,0-0.3,0-0.4,0c-0.1,0-0.2,0-0.2-0.1
	c-0.1,0-0.1-0.1-0.1-0.2c0-0.1,0-0.2,0-0.3v-3.5h1.1v-0.8H51.1z M57.4,417.1h-3.3c0-0.2,0.1-0.4,0.1-0.6c0.1-0.2,0.2-0.4,0.3-0.5
	c0.1-0.1,0.3-0.3,0.5-0.3c0.2-0.1,0.4-0.1,0.7-0.1c0.2,0,0.4,0,0.6,0.1c0.2,0.1,0.4,0.2,0.5,0.3c0.1,0.1,0.3,0.3,0.3,0.5
	C57.4,416.7,57.4,416.9,57.4,417.1z M58.3,418.7h-0.9c-0.1,0.4-0.2,0.7-0.5,0.8c-0.2,0.2-0.6,0.3-1,0.3c-0.3,0-0.6-0.1-0.8-0.2
	c-0.2-0.1-0.4-0.2-0.6-0.4c-0.1-0.2-0.3-0.4-0.3-0.6c-0.1-0.2-0.1-0.5-0.1-0.7h4.3c0-0.3,0-0.7-0.1-1.1c-0.1-0.4-0.2-0.7-0.4-1.1
	c-0.2-0.3-0.5-0.6-0.8-0.8c-0.3-0.2-0.7-0.3-1.3-0.3c-0.4,0-0.7,0.1-1.1,0.2c-0.3,0.1-0.6,0.4-0.8,0.6c-0.2,0.3-0.4,0.6-0.5,0.9
	c-0.1,0.4-0.2,0.8-0.2,1.2c0,0.4,0.1,0.8,0.2,1.2c0.1,0.4,0.3,0.7,0.5,0.9c0.2,0.3,0.5,0.5,0.8,0.6c0.3,0.1,0.7,0.2,1.2,0.2
	c0.6,0,1.2-0.2,1.6-0.5C57.9,419.8,58.2,419.3,58.3,418.7z M60.3,417.7c0-0.3,0-0.5,0.1-0.8c0.1-0.3,0.2-0.5,0.3-0.7
	c0.1-0.2,0.3-0.4,0.5-0.5c0.2-0.1,0.5-0.2,0.8-0.2c0.3,0,0.6,0.1,0.8,0.2c0.2,0.1,0.4,0.3,0.5,0.5c0.1,0.2,0.3,0.4,0.3,0.7
	c0.1,0.3,0.1,0.5,0.1,0.8c0,0.3,0,0.5-0.1,0.8c-0.1,0.3-0.2,0.5-0.3,0.7c-0.1,0.2-0.3,0.4-0.5,0.5c-0.2,0.1-0.5,0.2-0.8,0.2
	c-0.3,0-0.6-0.1-0.8-0.2c-0.2-0.1-0.4-0.3-0.5-0.5c-0.1-0.2-0.2-0.4-0.3-0.7C60.3,418.2,60.3,418,60.3,417.7z M64.7,420.5v-7.9h-0.9
	v2.9h0c-0.1-0.2-0.2-0.3-0.4-0.4c-0.1-0.1-0.3-0.2-0.5-0.3c-0.2-0.1-0.3-0.1-0.5-0.2c-0.2,0-0.3,0-0.5,0c-0.4,0-0.8,0.1-1.1,0.2
	c-0.3,0.2-0.6,0.4-0.8,0.6c-0.2,0.3-0.4,0.6-0.5,0.9c-0.1,0.4-0.2,0.7-0.2,1.1c0,0.4,0.1,0.8,0.2,1.1c0.1,0.4,0.3,0.7,0.5,0.9
	c0.2,0.3,0.5,0.5,0.8,0.6c0.3,0.2,0.7,0.2,1.2,0.2c0.4,0,0.8-0.1,1.1-0.2c0.3-0.1,0.6-0.4,0.7-0.7h0v0.8H64.7z M74.3,414.9h1
	c0-0.4-0.1-0.8-0.3-1.1c-0.1-0.3-0.4-0.6-0.6-0.8c-0.3-0.2-0.6-0.4-0.9-0.5c-0.3-0.1-0.7-0.1-1.1-0.1c-0.4,0-0.7,0-1.1,0.1
	c-0.3,0.1-0.6,0.2-0.9,0.4c-0.3,0.2-0.5,0.4-0.6,0.7c-0.2,0.3-0.2,0.6-0.2,1c0,0.4,0.1,0.7,0.2,0.9c0.1,0.2,0.3,0.4,0.6,0.6
	c0.2,0.1,0.5,0.3,0.8,0.4c0.3,0.1,0.6,0.2,0.9,0.2c0.3,0.1,0.6,0.1,0.9,0.2s0.6,0.2,0.8,0.3c0.2,0.1,0.4,0.2,0.6,0.4
	c0.1,0.2,0.2,0.4,0.2,0.7c0,0.3-0.1,0.5-0.2,0.7c-0.1,0.2-0.3,0.3-0.5,0.4c-0.2,0.1-0.4,0.2-0.6,0.2c-0.2,0-0.5,0.1-0.7,0.1
	c-0.3,0-0.6,0-0.9-0.1c-0.3-0.1-0.5-0.2-0.7-0.3c-0.2-0.2-0.4-0.3-0.5-0.6c-0.1-0.2-0.2-0.5-0.2-0.9h-1c0,0.5,0.1,0.9,0.3,1.2
	c0.2,0.3,0.4,0.6,0.7,0.9c0.3,0.2,0.6,0.4,1,0.5c0.4,0.1,0.8,0.2,1.3,0.2c0.4,0,0.7,0,1.1-0.1c0.4-0.1,0.7-0.2,1-0.4
	c0.3-0.2,0.5-0.4,0.7-0.7c0.2-0.3,0.3-0.7,0.3-1.1c0-0.4-0.1-0.7-0.2-1c-0.1-0.3-0.3-0.5-0.6-0.6c-0.2-0.2-0.5-0.3-0.8-0.4
	c-0.3-0.1-0.6-0.2-0.9-0.3c-0.3-0.1-0.6-0.1-0.9-0.2c-0.3-0.1-0.6-0.1-0.8-0.2c-0.2-0.1-0.4-0.2-0.6-0.4c-0.1-0.2-0.2-0.4-0.2-0.6
	c0-0.3,0-0.5,0.1-0.6c0.1-0.2,0.2-0.3,0.4-0.4c0.2-0.1,0.4-0.2,0.6-0.2s0.4-0.1,0.6-0.1c0.5,0,1,0.1,1.3,0.4
	C74,414,74.2,414.4,74.3,414.9z M78.2,414.8v-1.7h-0.9v1.7h-1v0.8h1v3.6c0,0.3,0,0.5,0.1,0.6c0.1,0.2,0.1,0.3,0.2,0.4
	c0.1,0.1,0.2,0.2,0.4,0.2c0.2,0,0.4,0,0.6,0h0.7v-0.8h-0.4c-0.1,0-0.3,0-0.4,0c-0.1,0-0.2,0-0.2-0.1c-0.1,0-0.1-0.1-0.1-0.2
	c0-0.1,0-0.2,0-0.3v-3.5h1.1v-0.8H78.2z M85.6,420.5c-0.2,0.1-0.4,0.1-0.7,0.1c-0.2,0-0.4-0.1-0.6-0.2c-0.1-0.1-0.2-0.4-0.2-0.7
	c-0.3,0.3-0.6,0.5-0.9,0.7c-0.3,0.1-0.7,0.2-1.1,0.2c-0.3,0-0.5,0-0.7-0.1c-0.2-0.1-0.4-0.1-0.6-0.3c-0.2-0.1-0.3-0.3-0.4-0.5
	c-0.1-0.2-0.1-0.5-0.1-0.7c0-0.3,0.1-0.6,0.2-0.8c0.1-0.2,0.3-0.4,0.4-0.5c0.2-0.1,0.4-0.2,0.6-0.3c0.2-0.1,0.5-0.1,0.7-0.2
	c0.3-0.1,0.5-0.1,0.7-0.1c0.2,0,0.4-0.1,0.6-0.1c0.2-0.1,0.3-0.1,0.4-0.2c0.1-0.1,0.2-0.2,0.2-0.4c0-0.2,0-0.4-0.1-0.5
	c-0.1-0.1-0.2-0.2-0.3-0.3c-0.1-0.1-0.3-0.1-0.4-0.1c-0.1,0-0.3,0-0.4,0c-0.4,0-0.7,0.1-1,0.2c-0.3,0.1-0.4,0.4-0.4,0.8h-0.9
	c0-0.4,0.1-0.6,0.2-0.9c0.1-0.2,0.3-0.4,0.5-0.6c0.2-0.2,0.5-0.3,0.7-0.3c0.3-0.1,0.6-0.1,0.9-0.1c0.3,0,0.5,0,0.8,0.1
	c0.3,0,0.5,0.1,0.7,0.2c0.2,0.1,0.4,0.3,0.5,0.5c0.1,0.2,0.2,0.5,0.2,0.8v2.9c0,0.2,0,0.4,0,0.5c0,0.1,0.1,0.2,0.3,0.2
	c0.1,0,0.2,0,0.3-0.1V420.5z M84.1,417.6c-0.1,0.1-0.3,0.2-0.5,0.2c-0.2,0-0.4,0.1-0.6,0.1c-0.2,0-0.4,0.1-0.6,0.1
	c-0.2,0-0.4,0.1-0.6,0.2c-0.2,0.1-0.3,0.2-0.4,0.3c-0.1,0.1-0.2,0.3-0.2,0.5c0,0.2,0,0.3,0.1,0.4c0.1,0.1,0.1,0.2,0.2,0.3
	c0.1,0.1,0.2,0.1,0.4,0.1c0.1,0,0.3,0,0.4,0c0.3,0,0.6,0,0.8-0.1c0.2-0.1,0.4-0.2,0.5-0.3c0.1-0.1,0.2-0.3,0.3-0.4
	c0.1-0.2,0.1-0.3,0.1-0.4V417.6z M88,414.8v-1.7h-0.9v1.7h-1v0.8h1v3.6c0,0.3,0,0.5,0.1,0.6c0.1,0.2,0.1,0.3,0.2,0.4
	c0.1,0.1,0.2,0.2,0.4,0.2c0.2,0,0.4,0,0.6,0h0.7v-0.8h-0.4c-0.1,0-0.3,0-0.4,0c-0.1,0-0.2,0-0.2-0.1c-0.1,0-0.1-0.1-0.1-0.2
	c0-0.1,0-0.2,0-0.3v-3.5h1.1v-0.8H88z M94.3,417.1H91c0-0.2,0.1-0.4,0.1-0.6c0.1-0.2,0.2-0.4,0.3-0.5c0.1-0.1,0.3-0.3,0.5-0.3
	c0.2-0.1,0.4-0.1,0.7-0.1c0.2,0,0.4,0,0.6,0.1c0.2,0.1,0.4,0.2,0.5,0.3c0.1,0.1,0.3,0.3,0.3,0.5C94.2,416.7,94.3,416.9,94.3,417.1z
	 M95.2,418.7h-0.9c-0.1,0.4-0.2,0.7-0.5,0.8c-0.2,0.2-0.6,0.3-1,0.3c-0.3,0-0.6-0.1-0.8-0.2c-0.2-0.1-0.4-0.2-0.6-0.4
	c-0.1-0.2-0.3-0.4-0.3-0.6c-0.1-0.2-0.1-0.5-0.1-0.7h4.3c0-0.3,0-0.7-0.1-1.1c-0.1-0.4-0.2-0.7-0.4-1.1c-0.2-0.3-0.5-0.6-0.8-0.8
	c-0.3-0.2-0.7-0.3-1.3-0.3c-0.4,0-0.7,0.1-1.1,0.2c-0.3,0.1-0.6,0.4-0.8,0.6c-0.2,0.3-0.4,0.6-0.5,0.9c-0.1,0.4-0.2,0.8-0.2,1.2
	c0,0.4,0.1,0.8,0.2,1.2c0.1,0.4,0.3,0.7,0.5,0.9c0.2,0.3,0.5,0.5,0.8,0.6c0.3,0.1,0.7,0.2,1.2,0.2c0.6,0,1.2-0.2,1.6-0.5
	C94.8,419.8,95.1,419.3,95.2,418.7z M97,418.7h-0.9c0,0.4,0.1,0.7,0.2,0.9c0.1,0.2,0.3,0.4,0.5,0.6c0.2,0.1,0.5,0.3,0.8,0.3
	c0.3,0.1,0.6,0.1,0.9,0.1c0.3,0,0.6,0,0.9-0.1c0.3-0.1,0.6-0.1,0.8-0.3c0.2-0.1,0.4-0.3,0.6-0.5c0.1-0.2,0.2-0.5,0.2-0.9
	c0-0.3-0.1-0.5-0.2-0.7c-0.1-0.2-0.2-0.3-0.4-0.5c-0.2-0.1-0.4-0.2-0.6-0.3c-0.2-0.1-0.4-0.1-0.7-0.2c-0.2-0.1-0.4-0.1-0.7-0.1
	c-0.2-0.1-0.4-0.1-0.6-0.2c-0.2-0.1-0.3-0.2-0.4-0.3c-0.1-0.1-0.2-0.2-0.2-0.4c0-0.1,0-0.3,0.1-0.4c0.1-0.1,0.2-0.2,0.3-0.2
	c0.1-0.1,0.2-0.1,0.4-0.1c0.1,0,0.3,0,0.4,0c0.2,0,0.3,0,0.5,0.1c0.2,0,0.3,0.1,0.4,0.2c0.1,0.1,0.2,0.2,0.3,0.3
	c0.1,0.1,0.1,0.3,0.1,0.5h0.9c0-0.3-0.1-0.6-0.2-0.9c-0.1-0.2-0.3-0.4-0.5-0.5c-0.2-0.1-0.4-0.2-0.7-0.3c-0.3-0.1-0.6-0.1-0.9-0.1
	c-0.2,0-0.5,0-0.8,0.1c-0.2,0.1-0.5,0.2-0.7,0.3c-0.2,0.1-0.4,0.3-0.5,0.5c-0.1,0.2-0.2,0.5-0.2,0.7c0,0.4,0.1,0.7,0.3,0.9
	c0.2,0.2,0.4,0.4,0.7,0.5c0.3,0.1,0.6,0.2,0.9,0.3c0.3,0.1,0.6,0.1,0.9,0.2c0.3,0.1,0.5,0.2,0.7,0.3c0.2,0.1,0.3,0.3,0.3,0.5
	c0,0.2,0,0.3-0.1,0.4c-0.1,0.1-0.2,0.2-0.3,0.3c-0.1,0.1-0.3,0.1-0.4,0.1c-0.2,0-0.3,0-0.5,0c-0.2,0-0.4,0-0.6-0.1
	c-0.2,0-0.3-0.1-0.5-0.2c-0.1-0.1-0.3-0.2-0.3-0.3C97.1,419.1,97,418.9,97,418.7z"/>
<path class="st37" d="M32.3,444.6v0.9h6.2v-0.9h-5l4.9-6.1v-0.9h-5.7v0.9h4.5L32.3,444.6z M39.9,437.6v7.9h1v-7.9H39.9z M43.9,441.4
	v-2.9h2c0.6,0,1,0.1,1.3,0.4c0.3,0.2,0.4,0.6,0.4,1.1c0,0.5-0.1,0.8-0.4,1.1c-0.3,0.2-0.7,0.4-1.3,0.4H43.9z M42.9,437.6v7.9h1v-3.2
	h2.4c0.8,0,1.4-0.2,1.8-0.6c0.4-0.4,0.6-1,0.6-1.7c0-0.7-0.2-1.3-0.6-1.7c-0.4-0.4-1-0.6-1.8-0.6H42.9z"/>
<path class="st2" d="M112.9,489.4v-2.9h2c0.6,0,1,0.1,1.3,0.4c0.3,0.2,0.4,0.6,0.4,1.1c0,0.5-0.1,0.8-0.4,1.1
	c-0.3,0.2-0.7,0.4-1.3,0.4H112.9z M111.8,485.6v7.9h1v-3.2h2.4c0.8,0,1.4-0.2,1.8-0.6c0.4-0.4,0.6-1,0.6-1.7c0-0.7-0.2-1.3-0.6-1.7
	c-0.4-0.4-1-0.6-1.8-0.6H111.8z M124,493.5c-0.2,0.1-0.4,0.1-0.7,0.1c-0.2,0-0.4-0.1-0.6-0.2c-0.1-0.1-0.2-0.4-0.2-0.7
	c-0.3,0.3-0.6,0.5-0.9,0.7c-0.3,0.1-0.7,0.2-1.1,0.2c-0.3,0-0.5,0-0.7-0.1c-0.2-0.1-0.4-0.1-0.6-0.3c-0.2-0.1-0.3-0.3-0.4-0.5
	c-0.1-0.2-0.1-0.5-0.1-0.7c0-0.3,0.1-0.6,0.2-0.8c0.1-0.2,0.3-0.4,0.4-0.5c0.2-0.1,0.4-0.2,0.6-0.3c0.2-0.1,0.5-0.1,0.7-0.2
	c0.3-0.1,0.5-0.1,0.7-0.1c0.2,0,0.4-0.1,0.6-0.1c0.2-0.1,0.3-0.1,0.4-0.2c0.1-0.1,0.2-0.2,0.2-0.4c0-0.2,0-0.4-0.1-0.5
	c-0.1-0.1-0.2-0.2-0.3-0.3c-0.1-0.1-0.3-0.1-0.4-0.1c-0.1,0-0.3,0-0.4,0c-0.4,0-0.7,0.1-1,0.2c-0.3,0.1-0.4,0.4-0.4,0.8h-0.9
	c0-0.4,0.1-0.6,0.2-0.9c0.1-0.2,0.3-0.4,0.5-0.6c0.2-0.2,0.5-0.3,0.7-0.3c0.3-0.1,0.6-0.1,0.9-0.1c0.3,0,0.5,0,0.8,0.1
	c0.3,0,0.5,0.1,0.7,0.2c0.2,0.1,0.4,0.3,0.5,0.5c0.1,0.2,0.2,0.5,0.2,0.8v2.9c0,0.2,0,0.4,0,0.5c0,0.1,0.1,0.2,0.3,0.2
	c0.1,0,0.2,0,0.3-0.1V493.5z M122.5,490.6c-0.1,0.1-0.3,0.2-0.5,0.2c-0.2,0-0.4,0.1-0.6,0.1c-0.2,0-0.4,0.1-0.6,0.1
	c-0.2,0-0.4,0.1-0.6,0.2c-0.2,0.1-0.3,0.2-0.4,0.3c-0.1,0.1-0.2,0.3-0.2,0.5c0,0.2,0,0.3,0.1,0.4c0.1,0.1,0.1,0.2,0.2,0.3
	c0.1,0.1,0.2,0.1,0.4,0.1c0.1,0,0.3,0,0.4,0c0.3,0,0.6,0,0.8-0.1c0.2-0.1,0.4-0.2,0.5-0.3c0.1-0.1,0.2-0.3,0.3-0.4
	c0.1-0.2,0.1-0.3,0.1-0.4V490.6z M127.3,494.3c-0.1,0.3-0.2,0.5-0.3,0.7c-0.1,0.2-0.2,0.3-0.4,0.5c-0.1,0.1-0.3,0.2-0.4,0.3
	c-0.2,0.1-0.3,0.1-0.5,0.1c-0.1,0-0.2,0-0.3,0c-0.1,0-0.2,0-0.3-0.1v-0.9c0.1,0,0.2,0.1,0.3,0.1c0.1,0,0.2,0,0.3,0
	c0.2,0,0.3,0,0.5-0.1c0.1-0.1,0.2-0.2,0.3-0.4l0.4-1l-2.3-5.7h1.1l1.7,4.7h0l1.6-4.7h1L127.3,494.3z M134.6,491.1h-0.9
	c0.1,0.8,0.3,1.4,0.7,1.8c0.4,0.4,1,0.7,1.7,0.8v0.9h0.6v-0.9c0.4,0,0.7-0.1,1-0.2c0.3-0.1,0.5-0.3,0.8-0.5c0.2-0.2,0.4-0.4,0.5-0.7
	c0.1-0.3,0.2-0.6,0.2-1c0-0.3-0.1-0.6-0.2-0.9c-0.1-0.2-0.3-0.4-0.5-0.6c-0.2-0.2-0.4-0.3-0.6-0.4c-0.2-0.1-0.4-0.2-0.5-0.2
	l-0.7-0.2v-2.7c0.7,0.1,1.1,0.6,1.2,1.3h0.9c-0.1-0.6-0.4-1.2-0.7-1.5c-0.4-0.4-0.8-0.6-1.4-0.7v-0.7h-0.6v0.7
	c-0.3,0-0.6,0.1-0.9,0.2c-0.3,0.1-0.5,0.3-0.7,0.5c-0.2,0.2-0.4,0.4-0.5,0.7c-0.1,0.3-0.2,0.6-0.2,0.9c0,0.3,0,0.6,0.1,0.8
	c0.1,0.2,0.2,0.4,0.4,0.6c0.2,0.2,0.4,0.3,0.7,0.4c0.3,0.1,0.6,0.2,1,0.3v2.9c-0.4-0.1-0.8-0.3-1.1-0.5
	C134.7,492,134.6,491.6,134.6,491.1z M136.7,492.8V490c0.2,0.1,0.4,0.1,0.6,0.2c0.2,0.1,0.3,0.2,0.5,0.3c0.1,0.1,0.2,0.2,0.3,0.4
	c0.1,0.1,0.1,0.3,0.1,0.5c0,0.2,0,0.4-0.1,0.6c-0.1,0.2-0.2,0.3-0.3,0.4c-0.1,0.1-0.3,0.2-0.5,0.3
	C137.1,492.8,136.9,492.8,136.7,492.8z M136.1,486.3v2.6c-0.2-0.1-0.4-0.1-0.5-0.2c-0.2-0.1-0.3-0.1-0.4-0.2
	c-0.1-0.1-0.2-0.2-0.3-0.3c-0.1-0.1-0.1-0.3-0.1-0.5c0-0.4,0.1-0.7,0.4-0.9C135.5,486.5,135.8,486.4,136.1,486.3z M143.6,493.5v-7.8
	h-0.7c-0.1,0.3-0.1,0.5-0.3,0.7c-0.1,0.2-0.3,0.3-0.5,0.5c-0.2,0.1-0.4,0.2-0.7,0.2c-0.2,0-0.5,0.1-0.8,0.1v0.7h2v5.6H143.6z
	 M149.7,490.9h-2.6l2.6-3.8h0V490.9z M150.6,490.9v-5.1h-0.7l-3.6,5.1v0.9h3.4v1.8h0.9v-1.8h1.1v-0.8H150.6z"/>
</svg>
